<?xml version="1.0" encoding="UTF-8"?>
<!DOCTYPE svg PUBLIC "-//W3C//DTD SVG 1.1//EN" "http://www.w3.org/Graphics/SVG/1.1/DTD/svg11.dtd">
<svg xmlns="http://www.w3.org/2000/svg" version="1.1" width="303px" height="190px" style="shape-rendering:geometricPrecision; text-rendering:geometricPrecision; image-rendering:optimizeQuality; fill-rule:evenodd; clip-rule:evenodd" xmlns:xlink="http://www.w3.org/1999/xlink">
<g><path style="opacity:1" fill="#ecd006" d="M -0.5,-0.5 C 12.8333,-0.5 26.1667,-0.5 39.5,-0.5C 39.5,3.16667 39.5,6.83333 39.5,10.5C 30.5,10.5 21.5,10.5 12.5,10.5C 12.5,20.8333 12.5,31.1667 12.5,41.5C 8.16667,41.5 3.83333,41.5 -0.5,41.5C -0.5,27.5 -0.5,13.5 -0.5,-0.5 Z"/></g>
<g><path style="opacity:1" fill="#f49709" d="M 39.5,-0.5 C 42.8333,-0.5 46.1667,-0.5 49.5,-0.5C 49.5,3.16667 49.5,6.83333 49.5,10.5C 46.1667,10.5 42.8333,10.5 39.5,10.5C 39.5,6.83333 39.5,3.16667 39.5,-0.5 Z"/></g>
<g><path style="opacity:1" fill="#db1852" d="M 49.5,-0.5 C 87.1667,-0.5 124.833,-0.5 162.5,-0.5C 162.5,18.5 162.5,37.5 162.5,56.5C 173.5,56.5 184.5,56.5 195.5,56.5C 195.5,64.8333 195.5,73.1667 195.5,81.5C 188.833,81.5 182.167,81.5 175.5,81.5C 175.5,90.5 175.5,99.5 175.5,108.5C 167.167,108.5 158.833,108.5 150.5,108.5C 150.5,75.8333 150.5,43.1667 150.5,10.5C 116.833,10.5 83.1667,10.5 49.5,10.5C 49.5,6.83333 49.5,3.16667 49.5,-0.5 Z"/></g>
<g><path style="opacity:1" fill="#ecd006" d="M 162.5,-0.5 C 164.833,-0.5 167.167,-0.5 169.5,-0.5C 169.5,15.8333 169.5,32.1667 169.5,48.5C 178.167,48.5 186.833,48.5 195.5,48.5C 197.833,48.5 200.167,48.5 202.5,48.5C 212.833,48.5 223.167,48.5 233.5,48.5C 233.5,47.1667 233.5,45.8333 233.5,44.5C 233.5,41.8333 233.5,39.1667 233.5,36.5C 233.5,24.1667 233.5,11.8333 233.5,-0.5C 235.833,-0.5 238.167,-0.5 240.5,-0.5C 240.5,11.8333 240.5,24.1667 240.5,36.5C 240.5,39.1667 240.5,41.8333 240.5,44.5C 240.5,48.5 240.5,52.5 240.5,56.5C 227.833,56.5 215.167,56.5 202.5,56.5C 200.167,56.5 197.833,56.5 195.5,56.5C 184.5,56.5 173.5,56.5 162.5,56.5C 162.5,37.5 162.5,18.5 162.5,-0.5 Z"/></g>
<g><path style="opacity:1" fill="#db1852" d="M 169.5,-0.5 C 173.5,-0.5 177.5,-0.5 181.5,-0.5C 181.5,6.5 181.5,13.5 181.5,20.5C 189.167,20.5 196.833,20.5 204.5,20.5C 204.5,13.5 204.5,6.5 204.5,-0.5C 214.167,-0.5 223.833,-0.5 233.5,-0.5C 233.5,11.8333 233.5,24.1667 233.5,36.5C 220.833,36.5 208.167,36.5 195.5,36.5C 195.5,40.5 195.5,44.5 195.5,48.5C 186.833,48.5 178.167,48.5 169.5,48.5C 169.5,32.1667 169.5,15.8333 169.5,-0.5 Z"/></g>
<g><path style="opacity:1" fill="#0ce910" d="M 181.5,-0.5 C 183.5,-0.5 185.5,-0.5 187.5,-0.5C 187.5,3.5 187.5,7.5 187.5,11.5C 191.167,11.5 194.833,11.5 198.5,11.5C 198.5,7.5 198.5,3.5 198.5,-0.5C 200.5,-0.5 202.5,-0.5 204.5,-0.5C 204.5,6.5 204.5,13.5 204.5,20.5C 196.833,20.5 189.167,20.5 181.5,20.5C 181.5,13.5 181.5,6.5 181.5,-0.5 Z"/></g>
<g><path style="opacity:1" fill="#0c0b0b" d="M 187.5,-0.5 C 191.167,-0.5 194.833,-0.5 198.5,-0.5C 198.5,3.5 198.5,7.5 198.5,11.5C 194.833,11.5 191.167,11.5 187.5,11.5C 187.5,7.5 187.5,3.5 187.5,-0.5 Z"/></g>
<g><path style="opacity:1" fill="#db1852" d="M 240.5,-0.5 C 249.833,-0.5 259.167,-0.5 268.5,-0.5C 268.5,6.16667 268.5,12.8333 268.5,19.5C 279.833,19.5 291.167,19.5 302.5,19.5C 302.5,76.1667 302.5,132.833 302.5,189.5C 250.833,189.5 199.167,189.5 147.5,189.5C 147.5,177.167 147.5,164.833 147.5,152.5C 135.833,152.5 124.167,152.5 112.5,152.5C 112.5,164.833 112.5,177.167 112.5,189.5C 74.8333,189.5 37.1667,189.5 -0.5,189.5C -0.5,186.167 -0.5,182.833 -0.5,179.5C 10.1667,179.5 20.8333,179.5 31.5,179.5C 31.5,166.833 31.5,154.167 31.5,141.5C 36.8333,141.5 42.1667,141.5 47.5,141.5C 47.5,147.833 47.5,154.167 47.5,160.5C 66.5,160.5 85.5,160.5 104.5,160.5C 104.5,154.167 104.5,147.833 104.5,141.5C 111.833,141.5 119.167,141.5 126.5,141.5C 126.5,144.167 126.5,146.833 126.5,149.5C 142.833,149.5 159.167,149.5 175.5,149.5C 175.5,159.833 175.5,170.167 175.5,180.5C 212.5,180.5 249.5,180.5 286.5,180.5C 286.5,147.5 286.5,114.5 286.5,81.5C 276.167,81.5 265.833,81.5 255.5,81.5C 255.5,66.5 255.5,51.5 255.5,36.5C 250.5,36.5 245.5,36.5 240.5,36.5C 240.5,24.1667 240.5,11.8333 240.5,-0.5 Z"/></g>
<g><path style="opacity:1" fill="#4814df" d="M 268.5,-0.5 C 271.5,-0.5 274.5,-0.5 277.5,-0.5C 277.5,2.83333 277.5,6.16667 277.5,9.5C 283.833,9.5 290.167,9.5 296.5,9.5C 296.5,6.16667 296.5,2.83333 296.5,-0.5C 298.5,-0.5 300.5,-0.5 302.5,-0.5C 302.5,6.16667 302.5,12.8333 302.5,19.5C 291.167,19.5 279.833,19.5 268.5,19.5C 268.5,12.8333 268.5,6.16667 268.5,-0.5 Z"/></g>
<g><path style="opacity:1" fill="#136410" d="M 277.5,-0.5 C 283.833,-0.5 290.167,-0.5 296.5,-0.5C 296.5,2.83333 296.5,6.16667 296.5,9.5C 290.167,9.5 283.833,9.5 277.5,9.5C 277.5,6.16667 277.5,2.83333 277.5,-0.5 Z"/></g>
<g><path style="opacity:1" fill="#4bb3bd" d="M 39.5,10.5 C 42.8333,10.5 46.1667,10.5 49.5,10.5C 83.1667,10.5 116.833,10.5 150.5,10.5C 150.5,43.1667 150.5,75.8333 150.5,108.5C 150.5,110.5 150.5,112.5 150.5,114.5C 150.5,123.5 150.5,132.5 150.5,141.5C 144.833,141.5 139.167,141.5 133.5,141.5C 131.167,141.5 128.833,141.5 126.5,141.5C 119.167,141.5 111.833,141.5 104.5,141.5C 104.5,137.833 104.5,134.167 104.5,130.5C 111.833,130.5 119.167,130.5 126.5,130.5C 128.833,130.5 131.167,130.5 133.5,130.5C 135.833,130.5 138.167,130.5 140.5,130.5C 140.5,125.167 140.5,119.833 140.5,114.5C 140.5,112.5 140.5,110.5 140.5,108.5C 140.5,79.1667 140.5,49.8333 140.5,20.5C 138.833,20.5 137.167,20.5 135.5,20.5C 121.167,20.5 106.833,20.5 92.5,20.5C 78.1667,20.5 63.8333,20.5 49.5,20.5C 46.1667,20.5 42.8333,20.5 39.5,20.5C 33.8333,20.5 28.1667,20.5 22.5,20.5C 22.5,27.5 22.5,34.5 22.5,41.5C 22.5,45.1667 22.5,48.8333 22.5,52.5C 22.5,74.5 22.5,96.5 22.5,118.5C 19.1667,118.5 15.8333,118.5 12.5,118.5C 12.5,96.5 12.5,74.5 12.5,52.5C 12.5,48.8333 12.5,45.1667 12.5,41.5C 12.5,31.1667 12.5,20.8333 12.5,10.5C 21.5,10.5 30.5,10.5 39.5,10.5 Z"/></g>
<g><path style="opacity:1" fill="#ecd006" d="M 39.5,20.5 C 39.5,27.5 39.5,34.5 39.5,41.5C 33.8333,41.5 28.1667,41.5 22.5,41.5C 22.5,34.5 22.5,27.5 22.5,20.5C 28.1667,20.5 33.8333,20.5 39.5,20.5 Z"/></g>
<g><path style="opacity:1" fill="#f49709" d="M 39.5,20.5 C 42.8333,20.5 46.1667,20.5 49.5,20.5C 49.5,31.1667 49.5,41.8333 49.5,52.5C 40.5,52.5 31.5,52.5 22.5,52.5C 22.5,48.8333 22.5,45.1667 22.5,41.5C 28.1667,41.5 33.8333,41.5 39.5,41.5C 39.5,34.5 39.5,27.5 39.5,20.5 Z"/></g>
<g><path style="opacity:1" fill="#db1852" d="M 49.5,20.5 C 63.8333,20.5 78.1667,20.5 92.5,20.5C 92.5,36.1667 92.5,51.8333 92.5,67.5C 106.833,67.5 121.167,67.5 135.5,67.5C 135.5,51.8333 135.5,36.1667 135.5,20.5C 137.167,20.5 138.833,20.5 140.5,20.5C 140.5,49.8333 140.5,79.1667 140.5,108.5C 135.833,108.5 131.167,108.5 126.5,108.5C 126.5,115.833 126.5,123.167 126.5,130.5C 119.167,130.5 111.833,130.5 104.5,130.5C 104.5,119.833 104.5,109.167 104.5,98.5C 85.5,98.5 66.5,98.5 47.5,98.5C 47.5,109.167 47.5,119.833 47.5,130.5C 42.1667,130.5 36.8333,130.5 31.5,130.5C 31.5,126.5 31.5,122.5 31.5,118.5C 28.5,118.5 25.5,118.5 22.5,118.5C 22.5,96.5 22.5,74.5 22.5,52.5C 31.5,52.5 40.5,52.5 49.5,52.5C 49.5,41.8333 49.5,31.1667 49.5,20.5 Z"/></g>
<g><path style="opacity:1" fill="#136410" d="M 92.5,20.5 C 106.833,20.5 121.167,20.5 135.5,20.5C 135.5,36.1667 135.5,51.8333 135.5,67.5C 121.167,67.5 106.833,67.5 92.5,67.5C 92.5,51.8333 92.5,36.1667 92.5,20.5 Z"/></g>
<g><path style="opacity:1" fill="#ed7776" d="M 233.5,36.5 C 233.5,39.1667 233.5,41.8333 233.5,44.5C 223.167,44.5 212.833,44.5 202.5,44.5C 202.5,45.8333 202.5,47.1667 202.5,48.5C 200.167,48.5 197.833,48.5 195.5,48.5C 195.5,44.5 195.5,40.5 195.5,36.5C 208.167,36.5 220.833,36.5 233.5,36.5 Z"/></g>
<g><path style="opacity:1" fill="#ed7776" d="M 240.5,36.5 C 245.5,36.5 250.5,36.5 255.5,36.5C 255.5,51.5 255.5,66.5 255.5,81.5C 255.5,84.5 255.5,87.5 255.5,90.5C 255.5,95.1667 255.5,99.8333 255.5,104.5C 235.5,104.5 215.5,104.5 195.5,104.5C 195.5,99.8333 195.5,95.1667 195.5,90.5C 195.5,87.5 195.5,84.5 195.5,81.5C 195.5,73.1667 195.5,64.8333 195.5,56.5C 197.833,56.5 200.167,56.5 202.5,56.5C 202.5,64.8333 202.5,73.1667 202.5,81.5C 202.5,84.5 202.5,87.5 202.5,90.5C 202.5,92.5 202.5,94.5 202.5,96.5C 217.833,96.5 233.167,96.5 248.5,96.5C 248.5,94.5 248.5,92.5 248.5,90.5C 248.5,87.5 248.5,84.5 248.5,81.5C 248.5,69.1667 248.5,56.8333 248.5,44.5C 245.833,44.5 243.167,44.5 240.5,44.5C 240.5,41.8333 240.5,39.1667 240.5,36.5 Z"/></g>
<g><path style="opacity:1" fill="#f49709" d="M -0.5,41.5 C 3.83333,41.5 8.16667,41.5 12.5,41.5C 12.5,45.1667 12.5,48.8333 12.5,52.5C 8.16667,52.5 3.83333,52.5 -0.5,52.5C -0.5,48.8333 -0.5,45.1667 -0.5,41.5 Z"/></g>
<g><path style="opacity:1" fill="#db1852" d="M 233.5,44.5 C 233.5,45.8333 233.5,47.1667 233.5,48.5C 223.167,48.5 212.833,48.5 202.5,48.5C 202.5,47.1667 202.5,45.8333 202.5,44.5C 212.833,44.5 223.167,44.5 233.5,44.5 Z"/></g>
<g><path style="opacity:1" fill="#db1852" d="M 240.5,44.5 C 243.167,44.5 245.833,44.5 248.5,44.5C 248.5,56.8333 248.5,69.1667 248.5,81.5C 233.167,81.5 217.833,81.5 202.5,81.5C 202.5,73.1667 202.5,64.8333 202.5,56.5C 215.167,56.5 227.833,56.5 240.5,56.5C 240.5,52.5 240.5,48.5 240.5,44.5 Z"/></g>
<g><path style="opacity:1" fill="#db1852" d="M -0.5,52.5 C 3.83333,52.5 8.16667,52.5 12.5,52.5C 12.5,74.5 12.5,96.5 12.5,118.5C 8.16667,118.5 3.83333,118.5 -0.5,118.5C -0.5,96.5 -0.5,74.5 -0.5,52.5 Z"/></g>
<g><path style="opacity:1" fill="#0ce910" d="M 195.5,81.5 C 195.5,84.5 195.5,87.5 195.5,90.5C 192.5,90.5 189.5,90.5 186.5,90.5C 186.5,96.5 186.5,102.5 186.5,108.5C 186.5,110.5 186.5,112.5 186.5,114.5C 186.5,123.833 186.5,133.167 186.5,142.5C 186.5,144.833 186.5,147.167 186.5,149.5C 186.5,156.5 186.5,163.5 186.5,170.5C 197.833,170.5 209.167,170.5 220.5,170.5C 230.5,170.5 240.5,170.5 250.5,170.5C 259.167,170.5 267.833,170.5 276.5,170.5C 276.5,143.833 276.5,117.167 276.5,90.5C 269.5,90.5 262.5,90.5 255.5,90.5C 255.5,87.5 255.5,84.5 255.5,81.5C 265.833,81.5 276.167,81.5 286.5,81.5C 286.5,114.5 286.5,147.5 286.5,180.5C 249.5,180.5 212.5,180.5 175.5,180.5C 175.5,170.167 175.5,159.833 175.5,149.5C 175.5,147.167 175.5,144.833 175.5,142.5C 175.5,133.167 175.5,123.833 175.5,114.5C 175.5,112.5 175.5,110.5 175.5,108.5C 175.5,99.5 175.5,90.5 175.5,81.5C 182.167,81.5 188.833,81.5 195.5,81.5 Z"/></g>
<g><path style="opacity:1" fill="#0ce910" d="M 202.5,81.5 C 217.833,81.5 233.167,81.5 248.5,81.5C 248.5,84.5 248.5,87.5 248.5,90.5C 233.167,90.5 217.833,90.5 202.5,90.5C 202.5,87.5 202.5,84.5 202.5,81.5 Z"/></g>
<g><path style="opacity:1" fill="#db1852" d="M 195.5,90.5 C 195.5,95.1667 195.5,99.8333 195.5,104.5C 215.5,104.5 235.5,104.5 255.5,104.5C 255.5,99.8333 255.5,95.1667 255.5,90.5C 262.5,90.5 269.5,90.5 276.5,90.5C 276.5,117.167 276.5,143.833 276.5,170.5C 267.833,170.5 259.167,170.5 248.5,170.5C 248.5,149.833 248.5,129.167 248.5,108.5C 240.5,108.5 230.5,108.5 220.5,108.5C 220.5,129.167 220.5,149.833 220.5,170.5C 209.167,170.5 197.833,170.5 186.5,170.5C 186.5,163.5 186.5,156.5 186.5,149.5C 189.833,149.5 193.167,149.5 196.5,149.5C 196.5,135.833 196.5,122.167 196.5,108.5C 193.167,108.5 189.833,108.5 186.5,108.5C 186.5,102.5 186.5,96.5 186.5,90.5C 189.5,90.5 192.5,90.5 195.5,90.5 Z"/></g>
<g><path style="opacity:1" fill="#db1852" d="M 202.5,90.5 C 217.833,90.5 233.167,90.5 248.5,90.5C 248.5,92.5 248.5,94.5 248.5,96.5C 233.167,96.5 217.833,96.5 202.5,96.5C 202.5,94.5 202.5,92.5 202.5,90.5 Z"/></g>
<g><path style="opacity:1" fill="#4814df" d="M 104.5,130.5 C 104.5,134.167 104.5,137.833 104.5,141.5C 104.5,147.833 104.5,154.167 104.5,160.5C 85.5,160.5 66.5,160.5 47.5,160.5C 47.5,154.167 47.5,147.833 47.5,141.5C 47.5,137.833 47.5,134.167 47.5,130.5C 47.5,119.833 47.5,109.167 47.5,98.5C 66.5,98.5 85.5,98.5 104.5,98.5C 104.5,109.167 104.5,119.833 104.5,130.5 Z"/></g>
<g><path style="opacity:1" fill="#79e7eb" d="M 250.5,170.5 C 240.5,170.5 230.5,170.5 220.5,170.5C 220.5,149.833 220.5,129.167 220.5,108.5C 230.5,108.5 240.5,108.5 250.5,108.5C 250.5,129.167 250.5,149.833 250.5,170.5 Z"/></g>
<g><path style="opacity:1" fill="#070506" d="M 140.5,108.5 C 140.5,110.5 140.5,112.5 140.5,114.5C 138.167,114.5 135.833,114.5 133.5,114.5C 133.5,119.833 133.5,125.167 133.5,130.5C 131.167,130.5 128.833,130.5 126.5,130.5C 126.5,123.167 126.5,115.833 126.5,108.5C 131.167,108.5 135.833,108.5 140.5,108.5 Z"/></g>
<g><path style="opacity:1" fill="#060506" d="M 150.5,108.5 C 158.833,108.5 167.167,108.5 175.5,108.5C 175.5,110.5 175.5,112.5 175.5,114.5C 167.167,114.5 158.833,114.5 150.5,114.5C 150.5,112.5 150.5,110.5 150.5,108.5 Z"/></g>
<g><path style="opacity:1" fill="#070606" d="M 186.5,108.5 C 189.833,108.5 193.167,108.5 196.5,108.5C 196.5,122.167 196.5,135.833 196.5,149.5C 193.167,149.5 189.833,149.5 186.5,149.5C 186.5,147.167 186.5,144.833 186.5,142.5C 187.5,142.5 188.5,142.5 189.5,142.5C 189.5,133.167 189.5,123.833 189.5,114.5C 188.5,114.5 187.5,114.5 186.5,114.5C 186.5,112.5 186.5,110.5 186.5,108.5 Z"/></g>
<g><path style="opacity:1" fill="#db1852" d="M 140.5,114.5 C 140.5,119.833 140.5,125.167 140.5,130.5C 138.167,130.5 135.833,130.5 133.5,130.5C 133.5,125.167 133.5,119.833 133.5,114.5C 135.833,114.5 138.167,114.5 140.5,114.5 Z"/></g>
<g><path style="opacity:1" fill="#db1852" d="M 150.5,114.5 C 158.833,114.5 167.167,114.5 175.5,114.5C 175.5,123.833 175.5,133.167 175.5,142.5C 161.323,142.829 147.323,142.496 133.5,141.5C 139.167,141.5 144.833,141.5 150.5,141.5C 150.5,132.5 150.5,123.5 150.5,114.5 Z"/></g>
<g><path style="opacity:1" fill="#db1852" d="M 186.5,114.5 C 187.5,114.5 188.5,114.5 189.5,114.5C 189.5,123.833 189.5,133.167 189.5,142.5C 188.5,142.5 187.5,142.5 186.5,142.5C 186.5,133.167 186.5,123.833 186.5,114.5 Z"/></g>
<g><path style="opacity:1" fill="#090707" d="M -0.5,118.5 C 3.83333,118.5 8.16667,118.5 12.5,118.5C 15.8333,118.5 19.1667,118.5 22.5,118.5C 25.5,118.5 28.5,118.5 31.5,118.5C 31.5,122.5 31.5,126.5 31.5,130.5C 31.5,134.167 31.5,137.833 31.5,141.5C 31.5,154.167 31.5,166.833 31.5,179.5C 20.8333,179.5 10.1667,179.5 -0.5,179.5C -0.5,176.833 -0.5,174.167 -0.5,171.5C 7.5,171.5 15.5,171.5 23.5,171.5C 23.5,161.5 23.5,151.5 23.5,141.5C 23.5874,136.463 23.254,131.463 22.5,126.5C 19.1667,126.5 15.8333,126.5 12.5,126.5C 8.16667,126.5 3.83333,126.5 -0.5,126.5C -0.5,123.833 -0.5,121.167 -0.5,118.5 Z"/></g>
<g><path style="opacity:1" fill="#db1852" d="M -0.5,126.5 C 3.83333,126.5 8.16667,126.5 12.5,126.5C 12.5,131.5 12.5,136.5 12.5,141.5C 16.1667,141.5 19.8333,141.5 23.5,141.5C 23.5,151.5 23.5,161.5 23.5,171.5C 15.5,171.5 7.5,171.5 -0.5,171.5C -0.5,156.5 -0.5,141.5 -0.5,126.5 Z"/></g>
<g><path style="opacity:1" fill="#4bb3bd" d="M 12.5,126.5 C 15.8333,126.5 19.1667,126.5 22.5,126.5C 23.254,131.463 23.5874,136.463 23.5,141.5C 19.8333,141.5 16.1667,141.5 12.5,141.5C 12.5,136.5 12.5,131.5 12.5,126.5 Z"/></g>
<g><path style="opacity:1" fill="#4bb3bd" d="M 31.5,130.5 C 36.8333,130.5 42.1667,130.5 47.5,130.5C 47.5,134.167 47.5,137.833 47.5,141.5C 42.1667,141.5 36.8333,141.5 31.5,141.5C 31.5,137.833 31.5,134.167 31.5,130.5 Z"/></g>
<g><path style="opacity:1" fill="#070606" d="M 126.5,141.5 C 128.833,141.5 131.167,141.5 133.5,141.5C 147.323,142.496 161.323,142.829 175.5,142.5C 175.5,144.833 175.5,147.167 175.5,149.5C 159.167,149.5 142.833,149.5 126.5,149.5C 126.5,146.833 126.5,144.167 126.5,141.5 Z"/></g>
<g><path style="opacity:1" fill="#f49709" d="M 147.5,189.5 C 135.833,189.5 124.167,189.5 112.5,189.5C 112.5,177.167 112.5,164.833 112.5,152.5C 124.167,152.5 135.833,152.5 147.5,152.5C 147.5,164.833 147.5,177.167 147.5,189.5 Z"/></g>
</svg>
