<?xml version="1.0" encoding="UTF-8"?>
<!DOCTYPE svg PUBLIC "-//W3C//DTD SVG 1.1//EN" "http://www.w3.org/Graphics/SVG/1.1/DTD/svg11.dtd">
<svg xmlns="http://www.w3.org/2000/svg" version="1.1" width="174px" height="170px" style="shape-rendering:geometricPrecision; text-rendering:geometricPrecision; image-rendering:optimizeQuality; fill-rule:evenodd; clip-rule:evenodd" xmlns:xlink="http://www.w3.org/1999/xlink">
<g><path style="opacity:1" fill="#fe0000" d="M -0.5,-0.5 C 6.83333,-0.5 14.1667,-0.5 21.5,-0.5C 25.0505,2.10545 29.0505,3.93878 33.5,5C 80.1852,18.8371 126.852,32.6705 173.5,46.5C 173.5,49.8333 173.5,53.1667 173.5,56.5C 115.425,39.3633 57.4247,22.0299 -0.5,4.5C -0.5,2.83333 -0.5,1.16667 -0.5,-0.5 Z"/></g>
<g><path style="opacity:1" fill="#acff00" d="M 21.5,-0.5 C 31.5,-0.5 41.5,-0.5 51.5,-0.5C 53.6646,1.14574 55.9979,2.64574 58.5,4C 96.8215,15.2746 135.155,26.4413 173.5,37.5C 173.5,40.5 173.5,43.5 173.5,46.5C 126.852,32.6705 80.1852,18.8371 33.5,5C 29.0505,3.93878 25.0505,2.10545 21.5,-0.5 Z"/></g>
<g><path style="opacity:1" fill="#fe0000" d="M 51.5,-0.5 C 60.1667,-0.5 68.8333,-0.5 77.5,-0.5C 80.1598,1.49666 83.1598,2.99666 86.5,4C 115.58,12.3519 144.58,20.8519 173.5,29.5C 173.5,32.1667 173.5,34.8333 173.5,37.5C 135.155,26.4413 96.8215,15.2746 58.5,4C 55.9979,2.64574 53.6646,1.14574 51.5,-0.5 Z"/></g>
<g><path style="opacity:1" fill="#acff00" d="M 77.5,-0.5 C 88.8333,-0.5 100.167,-0.5 111.5,-0.5C 113.435,0.809964 115.435,2.1433 117.5,3.5C 136.201,8.8408 154.868,14.1741 173.5,19.5C 173.5,22.8333 173.5,26.1667 173.5,29.5C 144.58,20.8519 115.58,12.3519 86.5,4C 83.1598,2.99666 80.1598,1.49666 77.5,-0.5 Z"/></g>
<g><path style="opacity:1" fill="#fe0000" d="M 111.5,-0.5 C 122.167,-0.5 132.833,-0.5 143.5,-0.5C 145.273,0.892318 147.273,2.05898 149.5,3C 157.535,5.1746 165.535,7.34127 173.5,9.5C 173.5,12.8333 173.5,16.1667 173.5,19.5C 154.868,14.1741 136.201,8.8408 117.5,3.5C 115.435,2.1433 113.435,0.809964 111.5,-0.5 Z"/></g>
<g><path style="opacity:1" fill="#acff00" d="M 143.5,-0.5 C 153.5,-0.5 163.5,-0.5 173.5,-0.5C 173.5,2.83333 173.5,6.16667 173.5,9.5C 165.535,7.34127 157.535,5.1746 149.5,3C 147.273,2.05898 145.273,0.892318 143.5,-0.5 Z"/></g>
<g><path style="opacity:1" fill="#acff00" d="M -0.5,4.5 C 57.4247,22.0299 115.425,39.3633 173.5,56.5C 173.5,59.8333 173.5,63.1667 173.5,66.5C 115.615,48.3174 57.6153,30.3174 -0.5,12.5C -0.5,9.83333 -0.5,7.16667 -0.5,4.5 Z"/></g>
<g><path style="opacity:1" fill="#fe0000" d="M -0.5,12.5 C 57.6153,30.3174 115.615,48.3174 173.5,66.5C 173.5,68.5 173.5,70.5 173.5,72.5C 172.167,72.5 170.833,72.5 169.5,72.5C 161.269,68.7351 152.603,66.0684 143.5,64.5C 136.24,61.194 128.574,58.8607 120.5,57.5C 113.229,54.1901 105.563,51.8568 97.5,50.5C 90.4555,47.5662 83.1222,45.2328 75.5,43.5C 69.6863,41.2129 63.6863,39.5462 57.5,38.5C 51.2335,35.5255 44.5668,33.5255 37.5,32.5C 33.5089,30.3941 29.1755,29.0608 24.5,28.5C 21.2034,26.3987 17.5368,25.0653 13.5,24.5C 13.8369,28.836 15.5035,32.5026 18.5,35.5C 19.7417,39.6553 21.7417,43.322 24.5,46.5C 26.3782,52.5874 29.0448,58.254 32.5,63.5C 34.7374,69.645 37.7374,75.3117 41.5,80.5C 43.4651,87.0969 46.4651,93.0969 50.5,98.5C 52.7929,105.752 56.1262,112.419 60.5,118.5C 62.7984,125.764 66.1317,132.43 70.5,138.5C 73.1317,146.43 76.7984,153.763 81.5,160.5C 82.9288,163.308 83.5955,166.308 83.5,169.5C 80.8333,169.5 78.1667,169.5 75.5,169.5C 75.6602,167.801 75.4935,166.134 75,164.5C 51,116.5 27,68.5 3,20.5C 2.18405,19.1772 1.01739,18.5106 -0.5,18.5C -0.5,16.5 -0.5,14.5 -0.5,12.5 Z"/></g>
<g><path style="opacity:1" fill="#acff00" d="M -0.5,18.5 C 1.01739,18.5106 2.18405,19.1772 3,20.5C 27,68.5 51,116.5 75,164.5C 75.4935,166.134 75.6602,167.801 75.5,169.5C 72.5,169.5 69.5,169.5 66.5,169.5C 66.6621,167.473 66.4955,165.473 66,163.5C 45.1667,121.833 24.3333,80.1667 3.5,38.5C 2.14819,37.4756 0.814858,36.4756 -0.5,35.5C -0.5,29.8333 -0.5,24.1667 -0.5,18.5 Z"/></g>
<g><path style="opacity:1" fill="#fbb7fe" d="M 24.5,28.5 C 21.7805,30.2193 19.7805,32.5526 18.5,35.5C 15.5035,32.5026 13.8369,28.836 13.5,24.5C 17.5368,25.0653 21.2034,26.3987 24.5,28.5 Z"/></g>
<g><path style="opacity:1" fill="#0000ff" d="M 24.5,28.5 C 29.1755,29.0608 33.5089,30.3941 37.5,32.5C 31.1034,35.2306 26.7701,39.8973 24.5,46.5C 21.7417,43.322 19.7417,39.6553 18.5,35.5C 19.7805,32.5526 21.7805,30.2193 24.5,28.5 Z"/></g>
<g><path style="opacity:1" fill="#fbb7fe" d="M 37.5,32.5 C 44.5668,33.5255 51.2335,35.5255 57.5,38.5C 43.411,41.2554 35.0777,49.5888 32.5,63.5C 29.0448,58.254 26.3782,52.5874 24.5,46.5C 26.7701,39.8973 31.1034,35.2306 37.5,32.5 Z"/></g>
<g><path style="opacity:1" fill="#fe0000" d="M -0.5,35.5 C 0.814858,36.4756 2.14819,37.4756 3.5,38.5C 24.3333,80.1667 45.1667,121.833 66,163.5C 66.4955,165.473 66.6621,167.473 66.5,169.5C 63.5,169.5 60.5,169.5 57.5,169.5C 57.6602,167.801 57.4935,166.134 57,164.5C 39.1667,128.833 21.3333,93.1667 3.5,57.5C 2.14819,56.4756 0.814858,55.4756 -0.5,54.5C -0.5,48.1667 -0.5,41.8333 -0.5,35.5 Z"/></g>
<g><path style="opacity:1" fill="#0000ff" d="M 57.5,38.5 C 63.6863,39.5462 69.6863,41.2129 75.5,43.5C 55.1561,47.512 43.8227,59.8454 41.5,80.5C 37.7374,75.3117 34.7374,69.645 32.5,63.5C 35.0777,49.5888 43.411,41.2554 57.5,38.5 Z"/></g>
<g><path style="opacity:1" fill="#fbb7fe" d="M 75.5,43.5 C 83.1222,45.2328 90.4555,47.5662 97.5,50.5C 68.2529,53.4119 52.5863,69.4119 50.5,98.5C 46.4651,93.0969 43.4651,87.0969 41.5,80.5C 43.8227,59.8454 55.1561,47.512 75.5,43.5 Z"/></g>
<g><path style="opacity:1" fill="#0000ff" d="M 97.5,50.5 C 105.563,51.8568 113.229,54.1901 120.5,57.5C 93.3115,57.5458 74.1449,69.8791 63,94.5C 60.9851,102.375 60.1517,110.375 60.5,118.5C 56.1262,112.419 52.7929,105.752 50.5,98.5C 52.5863,69.4119 68.2529,53.4119 97.5,50.5 Z"/></g>
<g><path style="opacity:1" fill="#acff00" d="M -0.5,54.5 C 0.814858,55.4756 2.14819,56.4756 3.5,57.5C 21.3333,93.1667 39.1667,128.833 57,164.5C 57.4935,166.134 57.6602,167.801 57.5,169.5C 54.1667,169.5 50.8333,169.5 47.5,169.5C 47.6602,167.801 47.4935,166.134 47,164.5C 32.5,135.5 18,106.5 3.5,77.5C 2.23415,76.6376 0.900818,75.9709 -0.5,75.5C -0.5,68.5 -0.5,61.5 -0.5,54.5 Z"/></g>
<g><path style="opacity:1" fill="#fbb7fe" d="M 120.5,57.5 C 128.574,58.8607 136.24,61.194 143.5,64.5C 108.681,63.2107 84.8479,78.544 72,110.5C 69.3959,119.727 68.8959,129.061 70.5,138.5C 66.1317,132.43 62.7984,125.764 60.5,118.5C 60.1517,110.375 60.9851,102.375 63,94.5C 74.1449,69.8791 93.3115,57.5458 120.5,57.5 Z"/></g>
<g><path style="opacity:1" fill="#0000ff" d="M 143.5,64.5 C 152.603,66.0684 161.269,68.7351 169.5,72.5C 152.142,72.3802 135.142,75.2136 118.5,81C 92.3529,93.2769 79.6862,113.944 80.5,143C 80.634,148.854 80.9673,154.688 81.5,160.5C 76.7984,153.763 73.1317,146.43 70.5,138.5C 68.8959,129.061 69.3959,119.727 72,110.5C 84.8479,78.544 108.681,63.2107 143.5,64.5 Z"/></g>
<g><path style="opacity:1" fill="#fbb7fe" d="M 169.5,72.5 C 170.833,72.5 172.167,72.5 173.5,72.5C 173.5,75.5 173.5,78.5 173.5,81.5C 169.326,81.3336 165.326,82.0003 161.5,83.5C 158.733,83.8583 156.067,84.525 153.5,85.5C 149.686,86.0364 146.019,87.0364 142.5,88.5C 139.127,89.0659 136.127,90.3993 133.5,92.5C 129.017,93.0768 125.017,94.7435 121.5,97.5C 108.469,103.55 100.136,113.55 96.5,127.5C 94.9935,132.03 93.9935,136.697 93.5,141.5C 93.5,144.167 93.5,146.833 93.5,149.5C 93.3677,152.57 93.701,155.57 94.5,158.5C 94.5,160.833 94.5,163.167 94.5,165.5C 94.4326,166.959 94.7659,168.292 95.5,169.5C 91.5,169.5 87.5,169.5 83.5,169.5C 83.5955,166.308 82.9288,163.308 81.5,160.5C 80.9673,154.688 80.634,148.854 80.5,143C 79.6862,113.944 92.3529,93.2769 118.5,81C 135.142,75.2136 152.142,72.3802 169.5,72.5 Z"/></g>
<g><path style="opacity:1" fill="#fe0000" d="M -0.5,75.5 C 0.900818,75.9709 2.23415,76.6376 3.5,77.5C 18,106.5 32.5,135.5 47,164.5C 47.4935,166.134 47.6602,167.801 47.5,169.5C 44.1667,169.5 40.8333,169.5 37.5,169.5C 37.6602,167.801 37.4935,166.134 37,164.5C 25.8333,142.167 14.6667,119.833 3.5,97.5C 2.14819,96.4756 0.814858,95.4756 -0.5,94.5C -0.5,88.1667 -0.5,81.8333 -0.5,75.5 Z"/></g>
<g><path style="opacity:1" fill="#00ffd3" d="M 173.5,81.5 C 173.5,94.1667 173.5,106.833 173.5,119.5C 167.994,133.952 159.327,146.452 147.5,157C 141.068,161.202 134.735,165.369 128.5,169.5C 117.5,169.5 106.5,169.5 95.5,169.5C 94.7659,168.292 94.4326,166.959 94.5,165.5C 126.727,165.44 147.894,150.107 158,119.5C 160.958,107.678 162.125,95.6781 161.5,83.5C 165.326,82.0003 169.326,81.3336 173.5,81.5 Z"/></g>
<g><path style="opacity:1" fill="#0000ff" d="M 161.5,83.5 C 162.125,95.6781 160.958,107.678 158,119.5C 147.894,150.107 126.727,165.44 94.5,165.5C 94.5,163.167 94.5,160.833 94.5,158.5C 133.342,149.878 153.008,125.544 153.5,85.5C 156.067,84.525 158.733,83.8583 161.5,83.5 Z"/></g>
<g><path style="opacity:1" fill="#00ffd3" d="M 153.5,85.5 C 153.008,125.544 133.342,149.878 94.5,158.5C 93.701,155.57 93.3677,152.57 93.5,149.5C 126.427,142.566 142.761,122.233 142.5,88.5C 146.019,87.0364 149.686,86.0364 153.5,85.5 Z"/></g>
<g><path style="opacity:1" fill="#0000ff" d="M 142.5,88.5 C 142.761,122.233 126.427,142.566 93.5,149.5C 93.5,146.833 93.5,144.167 93.5,141.5C 119.309,135.357 132.643,119.024 133.5,92.5C 136.127,90.3993 139.127,89.0659 142.5,88.5 Z"/></g>
<g><path style="opacity:1" fill="#00ffd3" d="M 133.5,92.5 C 132.643,119.024 119.309,135.357 93.5,141.5C 93.9935,136.697 94.9935,132.03 96.5,127.5C 112.77,124.222 121.103,114.222 121.5,97.5C 125.017,94.7435 129.017,93.0768 133.5,92.5 Z"/></g>
<g><path style="opacity:1" fill="#acff00" d="M -0.5,94.5 C 0.814858,95.4756 2.14819,96.4756 3.5,97.5C 14.6667,119.833 25.8333,142.167 37,164.5C 37.4935,166.134 37.6602,167.801 37.5,169.5C 34.5,169.5 31.5,169.5 28.5,169.5C 28.6602,167.801 28.4935,166.134 28,164.5C 20.0888,148.344 11.9221,132.344 3.5,116.5C 2.14819,115.476 0.814858,114.476 -0.5,113.5C -0.5,107.167 -0.5,100.833 -0.5,94.5 Z"/></g>
<g><path style="opacity:1" fill="#0000ff" d="M 121.5,97.5 C 121.103,114.222 112.77,124.222 96.5,127.5C 100.136,113.55 108.469,103.55 121.5,97.5 Z"/></g>
<g><path style="opacity:1" fill="#fe0000" d="M -0.5,113.5 C 0.814858,114.476 2.14819,115.476 3.5,116.5C 11.9221,132.344 20.0888,148.344 28,164.5C 28.4935,166.134 28.6602,167.801 28.5,169.5C 25.1667,169.5 21.8333,169.5 18.5,169.5C 14.3486,158.191 9.34861,147.191 3.5,136.5C 2.15148,135.091 0.818144,133.757 -0.5,132.5C -0.5,126.167 -0.5,119.833 -0.5,113.5 Z"/></g>
<g><path style="opacity:1" fill="#0000ff" d="M 173.5,119.5 C 173.5,129.167 173.5,138.833 173.5,148.5C 166.167,155.167 159.167,162.167 152.5,169.5C 144.5,169.5 136.5,169.5 128.5,169.5C 134.735,165.369 141.068,161.202 147.5,157C 159.327,146.452 167.994,133.952 173.5,119.5 Z"/></g>
<g><path style="opacity:1" fill="#acff00" d="M -0.5,132.5 C 0.818144,133.757 2.15148,135.091 3.5,136.5C 9.34861,147.191 14.3486,158.191 18.5,169.5C 15.1667,169.5 11.8333,169.5 8.5,169.5C 7.83735,162.504 4.83735,156.837 -0.5,152.5C -0.5,145.833 -0.5,139.167 -0.5,132.5 Z"/></g>
<g><path style="opacity:1" fill="#00ffd3" d="M 173.5,148.5 C 173.5,155.5 173.5,162.5 173.5,169.5C 166.5,169.5 159.5,169.5 152.5,169.5C 159.167,162.167 166.167,155.167 173.5,148.5 Z"/></g>
<g><path style="opacity:1" fill="#fe0000" d="M -0.5,152.5 C 4.83735,156.837 7.83735,162.504 8.5,169.5C 5.5,169.5 2.5,169.5 -0.5,169.5C -0.5,163.833 -0.5,158.167 -0.5,152.5 Z"/></g>
</svg>
