<?xml version="1.0" encoding="UTF-8"?>
<!DOCTYPE svg PUBLIC "-//W3C//DTD SVG 1.1//EN" "http://www.w3.org/Graphics/SVG/1.1/DTD/svg11.dtd">
<svg xmlns="http://www.w3.org/2000/svg" version="1.1" width="1542px" height="963px" style="shape-rendering:geometricPrecision; text-rendering:geometricPrecision; image-rendering:optimizeQuality; fill-rule:evenodd; clip-rule:evenodd" xmlns:xlink="http://www.w3.org/1999/xlink">
<g><path style="opacity:1" fill="#fe4342" d="M 908.5,191.5 C 909.954,201.582 909.62,211.582 907.5,221.5C 909.408,225.989 910.742,230.655 911.5,235.5C 911.333,236.833 911.167,238.167 911,239.5C 906.144,247.212 901.81,255.212 898,263.5C 896.933,275.152 896.099,286.819 895.5,298.5C 895.543,299.416 895.876,300.083 896.5,300.5C 895.046,306.369 894.379,312.369 894.5,318.5C 891.813,318.336 889.146,318.503 886.5,319C 884.347,319.099 882.681,319.933 881.5,321.5C 878.592,320.431 875.592,320.264 872.5,321C 859.371,329.116 846.704,328.783 834.5,320C 827.058,320.19 819.724,321.357 812.5,323.5C 811.554,323.013 810.554,322.68 809.5,322.5C 806.194,323.163 802.861,323.663 799.5,324C 798.646,325.022 797.646,325.855 796.5,326.5C 794.477,325.46 792.477,324.46 790.5,323.5C 787.379,327.109 783.712,330.275 779.5,333C 773.188,332.644 766.855,332.644 760.5,333C 756.742,334.923 753.409,337.423 750.5,340.5C 748.705,339.735 746.872,339.068 745,338.5C 741.033,342.379 736.2,344.546 730.5,345C 729.507,365.758 729.173,386.591 729.5,407.5C 703.498,407.709 677.498,408.043 651.5,408.5C 649.829,360.335 648.495,312.002 647.5,263.5C 617.821,264.876 588.155,266.542 558.5,268.5C 555.248,268.479 552.081,268.146 549,267.5C 548.333,266.5 548.333,265.5 549,264.5C 550.481,263.529 551.315,262.196 551.5,260.5C 554.662,257.488 557.329,253.988 559.5,250C 562.249,248.877 564.749,247.377 567,245.5C 567.413,242.768 568.08,240.101 569,237.5C 574.978,232.345 581.311,227.678 588,223.5C 590.705,217.087 593.705,210.753 597,204.5C 596.658,198.241 598.325,192.575 602,187.5C 606.357,184.643 609.857,180.977 612.5,176.5C 622.055,172.278 631.389,167.611 640.5,162.5C 643.092,164.806 646.092,166.639 649.5,168C 653.295,176.459 659.628,182.126 668.5,185C 675.804,186.141 682.804,185.141 689.5,182C 694.857,174.465 701.024,167.631 708,161.5C 711.588,155.325 714.922,148.991 718,142.5C 723.431,137.072 728.098,131.072 732,124.5C 735.151,121.593 738.484,118.926 742,116.5C 744.796,108.983 747.13,101.317 749,93.5C 750.385,92.4495 751.385,91.1161 752,89.5C 752.668,85.4746 753.835,81.6412 755.5,78C 762.637,73.5962 770.304,70.5962 778.5,69C 784.336,65.7426 790.669,64.076 797.5,64C 799.758,62.0704 802.258,60.5704 805,59.5C 808.516,60.4367 812.016,61.4367 815.5,62.5C 815.5,63.8333 815.5,65.1667 815.5,66.5C 813.856,66.2865 812.356,66.6198 811,67.5C 810.667,70.8333 810.333,74.1667 810,77.5C 805.139,85.6607 803.972,94.1607 806.5,103C 806.167,104.833 805.833,106.667 805.5,108.5C 804.264,107.754 802.93,107.421 801.5,107.5C 801.5,108.5 801.5,109.5 801.5,110.5C 803.5,110.5 805.5,110.5 807.5,110.5C 808.683,117.717 810.683,124.717 813.5,131.5C 812.522,134.996 813.356,135.33 816,132.5C 816.69,135.196 818.19,137.363 820.5,139C 823.329,141.827 826.663,143.827 830.5,145C 829.167,145.667 829.167,146.333 830.5,147C 833.202,148.34 835.869,149.673 838.5,151C 836.321,151.442 835.655,152.442 836.5,154C 839.71,155.546 843.044,155.712 846.5,154.5C 849.532,154.806 852.532,155.306 855.5,156C 858.029,158.029 860.696,159.862 863.5,161.5C 866.486,166.639 869.986,171.305 874,175.5C 875.827,179.265 876.327,183.098 875.5,187C 878.349,190.971 881.016,190.471 883.5,185.5C 882.352,183.851 881.019,182.351 879.5,181C 879.833,180.833 880.167,180.667 880.5,180.5C 889.81,184.152 899.144,187.819 908.5,191.5 Z"/></g>
<g><path style="opacity:1" fill="#43ff54" d="M 1248.5,285.5 C 1242.84,285.031 1237.17,284.531 1231.5,284C 1230.21,282.59 1229.05,281.09 1228,279.5C 1227.9,276.3 1227.23,273.3 1226,270.5C 1223.98,272.682 1221.48,273.682 1218.5,273.5C 1199.88,270.792 1181.21,268.459 1162.5,266.5C 1155.22,267.705 1148.22,269.705 1141.5,272.5C 1120.4,268.914 1099.4,264.747 1078.5,260C 1075.67,255.637 1075.84,251.47 1079,247.5C 1079.02,243.087 1080.19,239.087 1082.5,235.5C 1084.31,235.491 1085.98,235.991 1087.5,237C 1088.01,239.566 1089.17,241.733 1091,243.5C 1094.74,243.653 1098.57,243.82 1102.5,244C 1104.78,244.986 1107.11,245.82 1109.5,246.5C 1116.2,243.574 1123.2,241.741 1130.5,241C 1132.34,237.372 1135.34,235.372 1139.5,235C 1140.44,231.06 1142.94,228.893 1147,228.5C 1150.9,230.58 1155.07,232.08 1159.5,233C 1160.98,235.148 1162.98,236.482 1165.5,237C 1166.71,239.423 1168.05,241.756 1169.5,244C 1172.98,244.165 1176.31,244.332 1179.5,244.5C 1181.2,244.101 1182.86,243.601 1184.5,243C 1187.92,239.482 1190.59,235.482 1192.5,231C 1199.74,227.8 1206.57,223.967 1213,219.5C 1216.79,211.388 1217.96,202.888 1216.5,194C 1217.25,190.482 1218.09,186.982 1219,183.5C 1221.48,179.595 1224.14,179.595 1227,183.5C 1227.33,183.167 1227.67,182.833 1228,182.5C 1225.02,169.12 1229.69,159.12 1242,152.5C 1243,153.5 1244,154.5 1245,155.5C 1246.13,150.716 1248.96,147.549 1253.5,146C 1253.04,145.586 1252.71,145.086 1252.5,144.5C 1253.51,141.745 1255.34,139.745 1258,138.5C 1258.98,130.696 1263.14,125.529 1270.5,123C 1274.16,117.165 1279.16,112.999 1285.5,110.5C 1279.22,108.322 1279.55,106.322 1286.5,104.5C 1290.48,106.719 1294.81,107.886 1299.5,108C 1303.97,112.41 1305.3,117.577 1303.5,123.5C 1305.47,129.669 1306.47,136.002 1306.5,142.5C 1305.49,148.685 1305.49,154.852 1306.5,161C 1306.42,164.235 1305.92,167.402 1305,170.5C 1303.09,172.657 1301.42,174.991 1300,177.5C 1300.99,179.92 1300.65,182.253 1299,184.5C 1292.29,195.418 1285.46,206.251 1278.5,217C 1280.11,216.981 1281.77,216.815 1283.5,216.5C 1283.41,218.677 1282.75,220.677 1281.5,222.5C 1274.74,227.356 1269.9,233.689 1267,241.5C 1265.33,243.167 1263.67,244.833 1262,246.5C 1257.47,257.086 1253.14,267.753 1249,278.5C 1248.5,280.81 1248.34,283.143 1248.5,285.5 Z"/></g>
<g><path style="opacity:1" fill="#510f0e" d="M 1012.5,199.5 C 1017.65,194.752 1023.65,191.252 1030.5,189C 1032.45,186.926 1034.29,184.759 1036,182.5C 1040.13,185.244 1042.46,188.911 1043,193.5C 1041.5,195 1040,196.5 1038.5,198C 1034.48,198.919 1030.82,200.586 1027.5,203C 1028.42,205.041 1028.76,207.208 1028.5,209.5C 1040.02,211.334 1040.36,214.668 1029.5,219.5C 1026.73,217.908 1023.73,216.908 1020.5,216.5C 1020.85,220.65 1019.02,223.316 1015,224.5C 1012.67,218.344 1008.5,216.844 1002.5,220C 1000.79,221.378 999.453,223.045 998.5,225C 1001.93,225.116 1004.93,226.283 1007.5,228.5C 1013.2,225.698 1018.87,224.031 1024.5,223.5C 1023.76,229.118 1021.26,233.784 1017,237.5C 1016.29,239.899 1016.46,242.232 1017.5,244.5C 1016.96,245.748 1016.29,246.915 1015.5,248C 1000.78,246.937 986.111,245.103 971.5,242.5C 966.984,242.481 964.984,244.814 965.5,249.5C 965.967,252.65 966.967,255.65 968.5,258.5C 968.167,259.833 967.833,261.167 967.5,262.5C 968.36,266.966 970.527,270.633 974,273.5C 977.511,285.035 977.011,296.369 972.5,307.5C 947.154,305.313 921.821,302.98 896.5,300.5C 895.876,300.083 895.543,299.416 895.5,298.5C 896.099,286.819 896.933,275.152 898,263.5C 901.81,255.212 906.144,247.212 911,239.5C 911.167,238.167 911.333,236.833 911.5,235.5C 910.742,230.655 909.408,225.989 907.5,221.5C 909.62,211.582 909.954,201.582 908.5,191.5C 914.001,192.917 919.501,194.25 925,195.5C 934.678,191.13 944.844,189.464 955.5,190.5C 954.923,194.784 956.59,197.784 960.5,199.5C 966.476,198.101 972.143,196.267 977.5,194C 978.476,196.147 978.309,198.314 977,200.5C 971.873,205.563 972.539,206.563 979,203.5C 979.333,197.167 979.667,190.833 980,184.5C 983.082,182.375 986.249,180.375 989.5,178.5C 991.924,179.423 993.924,180.923 995.5,183C 999.042,183.851 1002.38,183.351 1005.5,181.5C 1009.89,182.901 1012.89,185.568 1014.5,189.5C 1013.96,192.878 1013.29,196.211 1012.5,199.5 Z"/></g>
<!-- <g><path style="opacity:1" fill="#fefffe" d="M 1012.5,199.5 C 1012.05,202.487 1010.55,203.487 1008,202.5C 1008.32,200.227 1009.82,199.227 1012.5,199.5 Z"/></g> -->
<g><path style="opacity:1" fill="#fe4342" d="M 1024.5,223.5 C 1026.31,223.491 1027.98,223.991 1029.5,225C 1037.09,231.852 1046.09,234.685 1056.5,233.5C 1055.07,235.189 1054.24,237.189 1054,239.5C 1052.33,251.833 1050.67,264.167 1049,276.5C 1048.25,310.832 1047.58,345.165 1047,379.5C 1045.88,381.407 1045.04,383.407 1044.5,385.5C 1026.92,382.181 1009.25,379.181 991.5,376.5C 987.084,371.331 984.584,365.331 984,358.5C 983,356.167 981.333,354.5 979,353.5C 978.667,351.167 978.333,348.833 978,346.5C 975.528,344.702 973.861,342.368 973,339.5C 972.751,336.168 971.918,333.001 970.5,330C 972.647,322.553 973.314,315.053 972.5,307.5C 977.011,296.369 977.511,285.035 974,273.5C 970.527,270.633 968.36,266.966 967.5,262.5C 967.833,261.167 968.167,259.833 968.5,258.5C 966.967,255.65 965.967,252.65 965.5,249.5C 964.984,244.814 966.984,242.481 971.5,242.5C 986.111,245.103 1000.78,246.937 1015.5,248C 1016.29,246.915 1016.96,245.748 1017.5,244.5C 1016.46,242.232 1016.29,239.899 1017,237.5C 1021.26,233.784 1023.76,229.118 1024.5,223.5 Z"/></g>
<g><path style="opacity:1" fill="#510f0e" d="M 1056.5,233.5 C 1060.9,234.216 1064.23,236.55 1066.5,240.5C 1070.38,234.581 1075.72,232.914 1082.5,235.5C 1080.19,239.087 1079.02,243.087 1079,247.5C 1075.84,251.47 1075.67,255.637 1078.5,260C 1099.4,264.747 1120.4,268.914 1141.5,272.5C 1142.6,281.918 1141.93,291.251 1139.5,300.5C 1140.11,304.486 1140.61,308.486 1141,312.5C 1142.24,313.399 1143.07,314.566 1143.5,316C 1142.21,318.071 1141.05,320.238 1140,322.5C 1137.83,323.585 1135.83,324.919 1134,326.5C 1133,332.167 1132,337.833 1131,343.5C 1124.78,360.978 1119.28,378.645 1114.5,396.5C 1098.56,393.287 1082.56,390.287 1066.5,387.5C 1058.78,390.489 1051.44,389.822 1044.5,385.5C 1045.04,383.407 1045.88,381.407 1047,379.5C 1047.58,345.165 1048.25,310.832 1049,276.5C 1050.67,264.167 1052.33,251.833 1054,239.5C 1054.24,237.189 1055.07,235.189 1056.5,233.5 Z"/></g>
<g><path style="opacity:1" fill="#510f0e" d="M 551.5,260.5 C 551.315,262.196 550.481,263.529 549,264.5C 548.333,265.5 548.333,266.5 549,267.5C 552.081,268.146 555.248,268.479 558.5,268.5C 588.155,266.542 617.821,264.876 647.5,263.5C 648.495,312.002 649.829,360.335 651.5,408.5C 650.548,414.075 650.214,419.741 650.5,425.5C 599.089,428.429 547.756,432.429 496.5,437.5C 495.732,436.737 495.232,435.737 495,434.5C 489.289,373.513 483.789,312.513 478.5,251.5C 486.373,249.681 494.373,248.347 502.5,247.5C 504.029,247.529 505.196,248.196 506,249.5C 506.232,253.555 506.732,257.555 507.5,261.5C 520.669,261.834 533.836,261.168 547,259.5C 548.592,259.605 550.092,259.939 551.5,260.5 Z"/></g>
<g><path style="opacity:1" fill="#fe4342" d="M 478.5,251.5 C 483.789,312.513 489.289,373.513 495,434.5C 495.232,435.737 495.732,436.737 496.5,437.5C 496.5,438.167 496.167,438.5 495.5,438.5C 452.67,443.714 410.003,450.047 367.5,457.5C 366.051,448.867 364.551,440.201 363,431.5C 361.938,430.101 360.605,429.101 359,428.5C 346.717,435.284 340.883,431.784 341.5,418C 342.561,411.86 342.727,405.694 342,399.5C 341.292,398.619 340.458,397.953 339.5,397.5C 341.103,390.892 342.603,384.225 344,377.5C 346.35,375.317 348.517,372.984 350.5,370.5C 347.133,367.392 343.633,364.392 340,361.5C 337.679,357.371 335.846,353.037 334.5,348.5C 333.758,347.713 332.925,347.047 332,346.5C 329.722,339.945 330.222,333.611 333.5,327.5C 332.523,324.825 330.523,323.325 327.5,323C 326.177,322.184 325.511,321.017 325.5,319.5C 325.104,316.956 325.771,314.789 327.5,313C 359.002,294.081 390.669,275.415 422.5,257C 441.327,254.368 459.993,252.535 478.5,251.5 Z"/></g>
<g><path style="opacity:1" fill="#fe4342" d="M 1248.5,285.5 C 1247.83,290.202 1246.83,294.868 1245.5,299.5C 1247.06,301.945 1247.39,304.445 1246.5,307C 1247.04,314.712 1249.2,321.879 1253,328.5C 1253.75,329.126 1254.58,329.626 1255.5,330C 1254.12,331.271 1253.12,332.771 1252.5,334.5C 1250.58,332.478 1248.41,332.144 1246,333.5C 1243.84,339.992 1239.84,344.992 1234,348.5C 1232.08,353.377 1230.25,358.211 1228.5,363C 1226.21,363.822 1223.88,364.489 1221.5,365C 1218.07,368.886 1214.4,372.553 1210.5,376C 1206.07,378.551 1201.4,380.551 1196.5,382C 1194.24,383.715 1192.07,385.548 1190,387.5C 1187.44,393.061 1183.27,396.894 1177.5,399C 1176.3,399.903 1175.47,401.069 1175,402.5C 1174.5,405.482 1174.34,408.482 1174.5,411.5C 1164.28,408.694 1153.94,406.361 1143.5,404.5C 1133.99,401.372 1124.33,398.706 1114.5,396.5C 1119.28,378.645 1124.78,360.978 1131,343.5C 1132,337.833 1133,332.167 1134,326.5C 1135.83,324.919 1137.83,323.585 1140,322.5C 1141.05,320.238 1142.21,318.071 1143.5,316C 1143.07,314.566 1142.24,313.399 1141,312.5C 1140.61,308.486 1140.11,304.486 1139.5,300.5C 1141.93,291.251 1142.6,281.918 1141.5,272.5C 1148.22,269.705 1155.22,267.705 1162.5,266.5C 1181.21,268.459 1199.88,270.792 1218.5,273.5C 1221.48,273.682 1223.98,272.682 1226,270.5C 1227.23,273.3 1227.9,276.3 1228,279.5C 1229.05,281.09 1230.21,282.59 1231.5,284C 1237.17,284.531 1242.84,285.031 1248.5,285.5 Z"/></g>
<g><path style="opacity:1" fill="#0f1552" d="M 896.5,300.5 C 921.821,302.98 947.154,305.313 972.5,307.5C 973.314,315.053 972.647,322.553 970.5,330C 971.918,333.001 972.751,336.168 973,339.5C 973.861,342.368 975.528,344.702 978,346.5C 978.333,348.833 978.667,351.167 979,353.5C 981.333,354.5 983,356.167 984,358.5C 984.584,365.331 987.084,371.331 991.5,376.5C 990.489,378.402 990.322,380.402 991,382.5C 992.252,384.001 993.252,385.668 994,387.5C 996.22,392.945 997.553,398.612 998,404.5C 1000.94,406.372 1002.11,409.039 1001.5,412.5C 996.708,412.651 992.041,411.984 987.5,410.5C 986.155,415.248 986.821,419.748 989.5,424C 989.355,424.772 989.022,425.439 988.5,426C 950.403,422.821 912.403,418.655 874.5,413.5C 874.077,412.735 873.743,411.902 873.5,411C 875.269,402.218 876.769,393.385 878,384.5C 879.182,363.482 880.348,342.482 881.5,321.5C 882.681,319.933 884.347,319.099 886.5,319C 889.146,318.503 891.813,318.336 894.5,318.5C 894.379,312.369 895.046,306.369 896.5,300.5 Z"/></g>
<g><path style="opacity:1" fill="#510f0e" d="M 325.5,319.5 C 325.511,321.017 326.177,322.184 327.5,323C 330.523,323.325 332.523,324.825 333.5,327.5C 330.222,333.611 329.722,339.945 332,346.5C 332.925,347.047 333.758,347.713 334.5,348.5C 335.846,353.037 337.679,357.371 340,361.5C 343.633,364.392 347.133,367.392 350.5,370.5C 348.517,372.984 346.35,375.317 344,377.5C 342.603,384.225 341.103,390.892 339.5,397.5C 338.504,397.414 337.671,397.748 337,398.5C 300.333,451.833 263.667,505.167 227,558.5C 233.525,590.605 240.692,622.605 248.5,654.5C 248.389,655.117 248.056,655.617 247.5,656C 218.174,663.915 189.174,672.915 160.5,683C 156.297,684.569 151.964,685.402 147.5,685.5C 146.885,680.002 146.719,674.335 147,668.5C 144.296,663.875 142.962,658.875 143,653.5C 138.965,649.8 135.298,645.8 132,641.5C 131.172,636.798 131.338,632.131 132.5,627.5C 136.972,622.585 138.972,616.752 138.5,610C 137.56,602.268 136.227,594.601 134.5,587C 135.862,582.602 136.696,578.102 137,573.5C 140.083,569.6 142.416,565.266 144,560.5C 144.415,556.69 144.082,553.023 143,549.5C 145.139,546.061 147.639,542.894 150.5,540C 152.701,539.175 154.534,539.675 156,541.5C 158.119,539.231 158.452,536.898 157,534.5C 156.147,536.125 155.147,536.458 154,535.5C 151.439,526.558 152.105,517.891 156,509.5C 158.703,506.462 161.703,503.795 165,501.5C 165.741,498.888 164.741,497.222 162,496.5C 159.826,493.454 159.159,490.12 160,486.5C 165.259,478.975 168.593,470.642 170,461.5C 174.768,456.742 177.768,451.075 179,444.5C 180,443.5 181,442.5 182,441.5C 182.48,433.757 182.147,426.09 181,418.5C 182.34,417.132 183.674,415.799 185,414.5C 189.655,413.157 193.821,410.99 197.5,408C 205.111,408.697 210.277,405.531 213,398.5C 218.521,391.974 225.354,387.474 233.5,385C 234.328,380.66 236.328,376.993 239.5,374C 242.895,372.885 246.061,371.385 249,369.5C 254.861,361.435 258.694,352.435 260.5,342.5C 258.938,340.099 259.271,338.099 261.5,336.5C 262.214,333.973 262.88,331.473 263.5,329C 268.711,327.241 274.044,325.908 279.5,325C 294.819,322.968 310.152,321.135 325.5,319.5 Z"/></g>
<g><path style="opacity:1" fill="#43ff53" d="M 881.5,321.5 C 880.348,342.482 879.182,363.482 878,384.5C 876.769,393.385 875.269,402.218 873.5,411C 873.743,411.902 874.077,412.735 874.5,413.5C 874.057,419.293 873.057,424.959 871.5,430.5C 807.235,425.971 742.902,424.305 678.5,425.5C 669.083,425.941 659.749,425.941 650.5,425.5C 650.214,419.741 650.548,414.075 651.5,408.5C 677.498,408.043 703.498,407.709 729.5,407.5C 729.173,386.591 729.507,365.758 730.5,345C 736.2,344.546 741.033,342.379 745,338.5C 746.872,339.068 748.705,339.735 750.5,340.5C 753.409,337.423 756.742,334.923 760.5,333C 766.855,332.644 773.188,332.644 779.5,333C 783.712,330.275 787.379,327.109 790.5,323.5C 792.477,324.46 794.477,325.46 796.5,326.5C 797.646,325.855 798.646,325.022 799.5,324C 802.861,323.663 806.194,323.163 809.5,322.5C 810.554,322.68 811.554,323.013 812.5,323.5C 819.724,321.357 827.058,320.19 834.5,320C 846.704,328.783 859.371,329.116 872.5,321C 875.592,320.264 878.592,320.431 881.5,321.5 Z"/></g>
<g><path style="opacity:1" fill="#510f0e" d="M 1252.5,334.5 C 1254.47,337.179 1254.81,340.012 1253.5,343C 1257.03,342.868 1259.03,344.535 1259.5,348C 1262,348.375 1264.33,349.208 1266.5,350.5C 1268.83,354.167 1271.83,357.167 1275.5,359.5C 1277.61,364.51 1280.77,368.843 1285,372.5C 1286.87,375.588 1288.21,378.921 1289,382.5C 1294.36,390.566 1299.2,398.899 1303.5,407.5C 1292.97,413.445 1282.64,419.945 1272.5,427C 1271.13,427.875 1269.63,428.375 1268,428.5C 1259.44,426.401 1250.94,424.067 1242.5,421.5C 1238.8,424.524 1234.8,427.19 1230.5,429.5C 1218.4,427.58 1206.4,425.08 1194.5,422C 1188.13,417.77 1181.47,414.27 1174.5,411.5C 1174.34,408.482 1174.5,405.482 1175,402.5C 1175.47,401.069 1176.3,399.903 1177.5,399C 1183.27,396.894 1187.44,393.061 1190,387.5C 1192.07,385.548 1194.24,383.715 1196.5,382C 1201.4,380.551 1206.07,378.551 1210.5,376C 1214.4,372.553 1218.07,368.886 1221.5,365C 1223.88,364.489 1226.21,363.822 1228.5,363C 1230.25,358.211 1232.08,353.377 1234,348.5C 1239.84,344.992 1243.84,339.992 1246,333.5C 1248.41,332.144 1250.58,332.478 1252.5,334.5 Z"/></g>
<g><path style="opacity:1" fill="#43ff53" d="M 991.5,376.5 C 1009.25,379.181 1026.92,382.181 1044.5,385.5C 1051.44,389.822 1058.78,390.489 1066.5,387.5C 1082.56,390.287 1098.56,393.287 1114.5,396.5C 1124.33,398.706 1133.99,401.372 1143.5,404.5C 1142.42,407.743 1142.25,411.076 1143,414.5C 1153.04,423.191 1163.21,432.024 1173.5,441C 1176.22,444.057 1178.56,447.39 1180.5,451C 1182.17,451.333 1183.83,451.667 1185.5,452C 1189.66,455.28 1194.32,457.613 1199.5,459C 1201.92,462.753 1202.92,466.92 1202.5,471.5C 1188.29,469.114 1174.29,465.781 1160.5,461.5C 1159.82,461.863 1159.15,462.196 1158.5,462.5C 1156.77,460.765 1154.77,459.432 1152.5,458.5C 1151.56,458.608 1150.72,458.941 1150,459.5C 1138.95,456.78 1127.78,454.447 1116.5,452.5C 1114.31,452.711 1112.15,453.044 1110,453.5C 1090.17,449.667 1070.33,445.833 1050.5,442C 1039.05,435.256 1027.05,433.423 1014.5,436.5C 1004.9,431.299 1000.57,423.299 1001.5,412.5C 1002.11,409.039 1000.94,406.372 998,404.5C 997.553,398.612 996.22,392.945 994,387.5C 993.252,385.668 992.252,384.001 991,382.5C 990.322,380.402 990.489,378.402 991.5,376.5 Z"/></g>
<g><path style="opacity:1" fill="#0f1552" d="M 339.5,397.5 C 340.458,397.953 341.292,398.619 342,399.5C 342.727,405.694 342.561,411.86 341.5,418C 340.883,431.784 346.717,435.284 359,428.5C 360.605,429.101 361.938,430.101 363,431.5C 364.551,440.201 366.051,448.867 367.5,457.5C 367.018,458.416 366.685,459.416 366.5,460.5C 374.749,513.653 383.082,566.653 391.5,619.5C 368.363,624.947 345.029,630.114 321.5,635C 320.944,635.383 320.611,635.883 320.5,636.5C 296.475,642.506 272.475,648.506 248.5,654.5C 240.692,622.605 233.525,590.605 227,558.5C 263.667,505.167 300.333,451.833 337,398.5C 337.671,397.748 338.504,397.414 339.5,397.5 Z"/></g>
<g><path style="opacity:1" fill="#0f1552" d="M 1143.5,404.5 C 1153.94,406.361 1164.28,408.694 1174.5,411.5C 1181.47,414.27 1188.13,417.77 1194.5,422C 1206.4,425.08 1218.4,427.58 1230.5,429.5C 1234.8,427.19 1238.8,424.524 1242.5,421.5C 1250.94,424.067 1259.44,426.401 1268,428.5C 1269.63,428.375 1271.13,427.875 1272.5,427C 1282.64,419.945 1292.97,413.445 1303.5,407.5C 1309.39,410.695 1315.22,414.028 1321,417.5C 1322.67,423.178 1324.33,428.845 1326,434.5C 1329.8,439.301 1333.97,443.801 1338.5,448C 1342.94,448.872 1347.28,450.038 1351.5,451.5C 1355.25,463.555 1351.92,465.721 1341.5,458C 1340.17,457.333 1338.83,457.333 1337.5,458C 1339.52,458.45 1341.35,459.283 1343,460.5C 1344.41,464.031 1345.24,467.698 1345.5,471.5C 1343.8,471.34 1342.13,471.506 1340.5,472C 1342.68,473.186 1343.68,475.019 1343.5,477.5C 1346.14,477.429 1348.31,476.429 1350,474.5C 1358.55,478.086 1363.05,484.586 1363.5,494C 1360.02,503.631 1356.36,503.798 1352.5,494.5C 1346.6,497.408 1340.93,497.075 1335.5,493.5C 1333.2,500.262 1334.54,501.595 1339.5,497.5C 1342.54,500.01 1345.54,502.51 1348.5,505C 1349.78,505.684 1350.95,505.517 1352,504.5C 1352.64,505.609 1353.14,506.775 1353.5,508C 1352.21,511.415 1350.54,514.582 1348.5,517.5C 1299.6,502.753 1250.93,487.42 1202.5,471.5C 1202.92,466.92 1201.92,462.753 1199.5,459C 1194.32,457.613 1189.66,455.28 1185.5,452C 1183.83,451.667 1182.17,451.333 1180.5,451C 1178.56,447.39 1176.22,444.057 1173.5,441C 1163.21,432.024 1153.04,423.191 1143,414.5C 1142.25,411.076 1142.42,407.743 1143.5,404.5 Z"/></g>
<g><path style="opacity:1" fill="#510f0e" d="M 1001.5,412.5 C 1000.57,423.299 1004.9,431.299 1014.5,436.5C 1013.55,441.405 1013.22,446.405 1013.5,451.5C 1004.43,451.739 999.928,456.405 1000,465.5C 998.92,467.996 997.586,470.33 996,472.5C 990.931,477.405 985.431,481.738 979.5,485.5C 978.149,487.454 977.482,489.621 977.5,492C 978.867,496.087 979.367,500.254 979,504.5C 976.684,505.496 974.35,506.496 972,507.5C 970.395,506.899 969.062,505.899 968,504.5C 966.094,510.219 963.428,515.552 960,520.5C 955,524.167 950,527.833 945,531.5C 943.643,537.061 942.809,542.728 942.5,548.5C 939.401,548.092 937.067,549.259 935.5,552C 902.908,548.931 870.241,546.431 837.5,544.5C 839.431,539.915 841.765,535.581 844.5,531.5C 849.199,529.73 853.365,527.063 857,523.5C 855.252,516.32 856.419,509.653 860.5,503.5C 864.874,502.625 867.374,499.958 868,495.5C 869.5,476 871,456.5 872.5,437C 872.496,434.639 872.163,432.473 871.5,430.5C 873.057,424.959 874.057,419.293 874.5,413.5C 912.403,418.655 950.403,422.821 988.5,426C 989.022,425.439 989.355,424.772 989.5,424C 986.821,419.748 986.155,415.248 987.5,410.5C 992.041,411.984 996.708,412.651 1001.5,412.5 Z"/></g>
<g><path style="opacity:1" fill="#fe4342" d="M 871.5,430.5 C 872.163,432.473 872.496,434.639 872.5,437C 871,456.5 869.5,476 868,495.5C 867.374,499.958 864.874,502.625 860.5,503.5C 856.419,509.653 855.252,516.32 857,523.5C 853.365,527.063 849.199,529.73 844.5,531.5C 843.527,531.013 842.527,530.513 841.5,530C 787.867,527.303 734.201,525.803 680.5,525.5C 679.555,492.176 678.888,458.842 678.5,425.5C 742.902,424.305 807.235,425.971 871.5,430.5 Z"/></g>
<g><path style="opacity:1" fill="#0f1552" d="M 650.5,425.5 C 659.749,425.941 669.083,425.941 678.5,425.5C 678.888,458.842 679.555,492.176 680.5,525.5C 679.526,535.418 679.193,545.418 679.5,555.5C 663.442,556.375 647.442,557.375 631.5,558.5C 590.412,560.75 549.412,564.084 508.5,568.5C 504.035,525.183 499.702,481.85 495.5,438.5C 496.167,438.5 496.5,438.167 496.5,437.5C 547.756,432.429 599.089,428.429 650.5,425.5 Z"/></g>
<g><path style="opacity:1" fill="#0f1552" d="M 1158.5,462.5 C 1165.1,467.265 1170.93,472.931 1176,479.5C 1176.33,481.5 1176.67,483.5 1177,485.5C 1183.58,489.344 1187.08,495.011 1187.5,502.5C 1177.95,508.405 1172.61,517.072 1171.5,528.5C 1170.13,528.343 1168.79,528.51 1167.5,529C 1164.18,531.994 1160.51,534.494 1156.5,536.5C 1152.81,532.213 1148.31,530.88 1143,532.5C 1141.69,531.427 1140.19,530.76 1138.5,530.5C 1136.38,531.312 1134.21,531.978 1132,532.5C 1128.38,530.692 1125.22,531.192 1122.5,534C 1118.75,534.649 1115.08,535.482 1111.5,536.5C 1109.92,532.906 1110.59,529.739 1113.5,527C 1112.83,526.333 1112.17,525.667 1111.5,525C 1105.9,523.393 1100.4,521.56 1095,519.5C 1093.7,510.403 1089.87,502.569 1083.5,496C 1080.5,496.333 1077.5,496.667 1074.5,497C 1073.03,494.757 1072.03,492.257 1071.5,489.5C 1065.66,491.274 1061.32,489.44 1058.5,484C 1054.46,483.303 1050.46,483.47 1046.5,484.5C 1044.43,484.215 1043.1,483.048 1042.5,481C 1041.21,480.51 1039.87,480.343 1038.5,480.5C 1036.38,476.313 1035.54,471.98 1036,467.5C 1033.67,465.833 1031.33,464.167 1029,462.5C 1028.75,459.8 1028.75,457.133 1029,454.5C 1028.59,454.043 1028.09,453.709 1027.5,453.5C 1023.81,454.372 1020.14,455.372 1016.5,456.5C 1013.91,455.927 1012.91,454.261 1013.5,451.5C 1013.22,446.405 1013.55,441.405 1014.5,436.5C 1027.05,433.423 1039.05,435.256 1050.5,442C 1070.33,445.833 1090.17,449.667 1110,453.5C 1112.15,453.044 1114.31,452.711 1116.5,452.5C 1127.78,454.447 1138.95,456.78 1150,459.5C 1150.72,458.941 1151.56,458.608 1152.5,458.5C 1154.77,459.432 1156.77,460.765 1158.5,462.5 Z"/></g>
<g><path style="opacity:1" fill="#43ff53" d="M 495.5,438.5 C 499.702,481.85 504.035,525.183 508.5,568.5C 492.249,570.907 475.916,573.073 459.5,575C 458.892,576.231 458.559,577.564 458.5,579C 459.975,588.823 461.308,598.657 462.5,608.5C 438.815,612.037 415.148,615.704 391.5,619.5C 383.082,566.653 374.749,513.653 366.5,460.5C 366.685,459.416 367.018,458.416 367.5,457.5C 410.003,450.047 452.67,443.714 495.5,438.5 Z"/></g>
<g><path style="opacity:1" fill="#fe4342" d="M 1013.5,451.5 C 1012.91,454.261 1013.91,455.927 1016.5,456.5C 1020.14,455.372 1023.81,454.372 1027.5,453.5C 1028.09,453.709 1028.59,454.043 1029,454.5C 1028.75,457.133 1028.75,459.8 1029,462.5C 1031.33,464.167 1033.67,465.833 1036,467.5C 1035.54,471.98 1036.38,476.313 1038.5,480.5C 1038.59,485.536 1039.09,490.536 1040,495.5C 1042.55,501.134 1044.71,506.968 1046.5,513C 1045.63,518.461 1044.3,523.795 1042.5,529C 1044.44,533.608 1044.94,538.441 1044,543.5C 1040.97,565.866 1037.8,588.2 1034.5,610.5C 1028.22,616.056 1024.89,623.056 1024.5,631.5C 1001.51,628.058 978.514,624.725 955.5,621.5C 958.004,616.482 961.504,612.149 966,608.5C 969.5,602.002 969,595.835 964.5,590C 961.228,588.392 958.228,586.392 955.5,584C 953.236,583.764 951.069,583.264 949,582.5C 949.59,580.186 950.757,578.019 952.5,576C 951.885,571.023 950.719,566.19 949,561.5C 947.667,560.167 946.333,558.833 945,557.5C 944.801,554.278 943.968,551.278 942.5,548.5C 942.809,542.728 943.643,537.061 945,531.5C 950,527.833 955,524.167 960,520.5C 963.428,515.552 966.094,510.219 968,504.5C 969.062,505.899 970.395,506.899 972,507.5C 974.35,506.496 976.684,505.496 979,504.5C 979.367,500.254 978.867,496.087 977.5,492C 977.482,489.621 978.149,487.454 979.5,485.5C 985.431,481.738 990.931,477.405 996,472.5C 997.586,470.33 998.92,467.996 1000,465.5C 999.928,456.405 1004.43,451.739 1013.5,451.5 Z"/></g>
<g><path style="opacity:1" fill="#fe4342" d="M 1202.5,471.5 C 1250.93,487.42 1299.6,502.753 1348.5,517.5C 1349.21,518.404 1350.21,518.737 1351.5,518.5C 1351.65,519.552 1351.48,520.552 1351,521.5C 1348.98,523.35 1347.15,525.35 1345.5,527.5C 1339.75,528.091 1334.09,528.924 1328.5,530C 1331.81,529.785 1335.14,529.785 1338.5,530C 1335.17,532.955 1331.84,535.955 1328.5,539C 1333.56,540.033 1334.56,542.533 1331.5,546.5C 1323.95,549.298 1323.95,550.631 1331.5,550.5C 1331.79,553.649 1331.29,556.649 1330,559.5C 1327.31,560.582 1325.15,562.249 1323.5,564.5C 1315.86,563.52 1308.19,563.353 1300.5,564C 1299.98,564.561 1299.64,565.228 1299.5,566C 1302.39,571.489 1303.72,577.322 1303.5,583.5C 1297.12,582.825 1292.12,584.991 1288.5,590C 1286.98,591.009 1285.31,591.509 1283.5,591.5C 1283,584.142 1279.5,582.476 1273,586.5C 1272.5,586.167 1272,585.833 1271.5,585.5C 1269.16,578.64 1266.32,571.974 1263,565.5C 1259.11,562.722 1256.44,559.056 1255,554.5C 1253.07,551.312 1250.23,549.812 1246.5,550C 1242.14,541.452 1237.64,532.952 1233,524.5C 1233.02,518.584 1232.85,512.751 1232.5,507C 1224.77,503.7 1216.77,500.866 1208.5,498.5C 1207.69,496.577 1207.19,494.577 1207,492.5C 1206.28,491.941 1205.44,491.608 1204.5,491.5C 1200.87,493.315 1197.2,495.149 1193.5,497C 1192.13,498.242 1191.13,499.742 1190.5,501.5C 1189.68,502.386 1188.68,502.719 1187.5,502.5C 1187.08,495.011 1183.58,489.344 1177,485.5C 1176.67,483.5 1176.33,481.5 1176,479.5C 1170.93,472.931 1165.1,467.265 1158.5,462.5C 1159.15,462.196 1159.82,461.863 1160.5,461.5C 1174.29,465.781 1188.29,469.114 1202.5,471.5 Z"/></g>
<g><path style="opacity:1" fill="#510f0e" d="M 1038.5,480.5 C 1039.87,480.343 1041.21,480.51 1042.5,481C 1043.1,483.048 1044.43,484.215 1046.5,484.5C 1050.46,483.47 1054.46,483.303 1058.5,484C 1061.32,489.44 1065.66,491.274 1071.5,489.5C 1072.03,492.257 1073.03,494.757 1074.5,497C 1077.5,496.667 1080.5,496.333 1083.5,496C 1089.87,502.569 1093.7,510.403 1095,519.5C 1100.4,521.56 1105.9,523.393 1111.5,525C 1112.17,525.667 1112.83,526.333 1113.5,527C 1110.59,529.739 1109.92,532.906 1111.5,536.5C 1106.5,563.822 1101.5,591.155 1096.5,618.5C 1096.69,619.584 1097.02,620.584 1097.5,621.5C 1096.42,622.018 1095.26,622.352 1094,622.5C 1080.15,619.897 1066.32,617.231 1052.5,614.5C 1050.83,614.668 1049.5,615.335 1048.5,616.5C 1044.34,613.421 1039.67,611.421 1034.5,610.5C 1037.8,588.2 1040.97,565.866 1044,543.5C 1044.94,538.441 1044.44,533.608 1042.5,529C 1044.3,523.795 1045.63,518.461 1046.5,513C 1044.71,506.968 1042.55,501.134 1040,495.5C 1039.09,490.536 1038.59,485.536 1038.5,480.5 Z"/></g>
<g><path style="opacity:1" fill="#510f0e" d="M 1283.5,591.5 C 1280.45,590.923 1278.45,592.09 1277.5,595C 1274.49,595.502 1271.49,596.002 1268.5,596.5C 1267.48,589.662 1263.48,586.829 1256.5,588C 1252.43,583.891 1247.93,580.391 1243,577.5C 1242.23,577.645 1241.56,577.978 1241,578.5C 1239.65,581.72 1238.81,585.053 1238.5,588.5C 1231.82,586.44 1225.15,584.274 1218.5,582C 1216.5,581.333 1214.5,581.333 1212.5,582C 1209.64,590.475 1206.98,598.975 1204.5,607.5C 1203.86,600.333 1203.69,593 1204,585.5C 1203.62,578.681 1201.12,572.848 1196.5,568C 1194.42,567.808 1192.42,567.308 1190.5,566.5C 1189.26,561.583 1188.43,556.583 1188,551.5C 1186.72,547.329 1184.55,546.662 1181.5,549.5C 1181.17,549.167 1180.83,548.833 1180.5,548.5C 1179.73,544.555 1179.23,540.555 1179,536.5C 1177.62,532.687 1175.12,530.021 1171.5,528.5C 1172.61,517.072 1177.95,508.405 1187.5,502.5C 1188.68,502.719 1189.68,502.386 1190.5,501.5C 1191.13,499.742 1192.13,498.242 1193.5,497C 1197.2,495.149 1200.87,493.315 1204.5,491.5C 1205.44,491.608 1206.28,491.941 1207,492.5C 1207.19,494.577 1207.69,496.577 1208.5,498.5C 1216.77,500.866 1224.77,503.7 1232.5,507C 1232.85,512.751 1233.02,518.584 1233,524.5C 1237.64,532.952 1242.14,541.452 1246.5,550C 1250.23,549.812 1253.07,551.312 1255,554.5C 1256.44,559.056 1259.11,562.722 1263,565.5C 1266.32,571.974 1269.16,578.64 1271.5,585.5C 1272,585.833 1272.5,586.167 1273,586.5C 1279.5,582.476 1283,584.142 1283.5,591.5 Z"/></g>
<g><path style="opacity:1" fill="#43ff53" d="M 680.5,525.5 C 734.201,525.803 787.867,527.303 841.5,530C 842.527,530.513 843.527,531.013 844.5,531.5C 841.765,535.581 839.431,539.915 837.5,544.5C 836.883,544.611 836.383,544.944 836,545.5C 835.667,549.833 835.333,554.167 835,558.5C 832.784,563.241 831.45,568.241 831,573.5C 825.591,577.306 823.924,582.306 826,588.5C 821.125,593.918 818.125,600.251 817,607.5C 815.595,608.731 814.429,610.064 813.5,611.5C 807.485,613.561 801.485,615.728 795.5,618C 789.5,618 783.5,618 777.5,618C 774.167,619.667 770.833,621.333 767.5,623C 723.5,622.627 679.5,623.127 635.5,624.5C 634.26,602.454 632.927,580.454 631.5,558.5C 647.442,557.375 663.442,556.375 679.5,555.5C 679.193,545.418 679.526,535.418 680.5,525.5 Z"/></g>
<g><path style="opacity:1" fill="#43ff53" d="M 1171.5,528.5 C 1175.12,530.021 1177.62,532.687 1179,536.5C 1179.23,540.555 1179.73,544.555 1180.5,548.5C 1180.83,548.833 1181.17,549.167 1181.5,549.5C 1184.55,546.662 1186.72,547.329 1188,551.5C 1188.43,556.583 1189.26,561.583 1190.5,566.5C 1192.42,567.308 1194.42,567.808 1196.5,568C 1201.12,572.848 1203.62,578.681 1204,585.5C 1203.69,593 1203.86,600.333 1204.5,607.5C 1203.11,623.066 1200.11,638.399 1195.5,653.5C 1192.44,652.308 1189.44,650.808 1186.5,649C 1180.83,644.667 1175.83,639.667 1171.5,634C 1163.21,629.376 1154.71,625.21 1146,621.5C 1144.83,622.009 1144,622.842 1143.5,624C 1139.13,624.421 1134.79,625.088 1130.5,626C 1129.06,626.377 1128.06,627.21 1127.5,628.5C 1117.5,626.167 1107.5,623.833 1097.5,621.5C 1097.02,620.584 1096.69,619.584 1096.5,618.5C 1101.5,591.155 1106.5,563.822 1111.5,536.5C 1115.08,535.482 1118.75,534.649 1122.5,534C 1125.22,531.192 1128.38,530.692 1132,532.5C 1134.21,531.978 1136.38,531.312 1138.5,530.5C 1140.19,530.76 1141.69,531.427 1143,532.5C 1148.31,530.88 1152.81,532.213 1156.5,536.5C 1160.51,534.494 1164.18,531.994 1167.5,529C 1168.79,528.51 1170.13,528.343 1171.5,528.5 Z"/></g>
<g><path style="opacity:1" fill="#fe43fc" d="M 1353.5,581.5 C 1349.37,580.426 1345.2,579.426 1341,578.5C 1339.89,578.585 1338.89,578.919 1338,579.5C 1333.25,591.582 1329.42,603.915 1326.5,616.5C 1307.99,611.72 1289.66,606.22 1271.5,600C 1269.86,598.065 1268.03,597.565 1266,598.5C 1260.23,596.465 1254.39,594.631 1248.5,593C 1244.74,592.148 1241.4,590.648 1238.5,588.5C 1238.81,585.053 1239.65,581.72 1241,578.5C 1241.56,577.978 1242.23,577.645 1243,577.5C 1247.93,580.391 1252.43,583.891 1256.5,588C 1263.48,586.829 1267.48,589.662 1268.5,596.5C 1271.49,596.002 1274.49,595.502 1277.5,595C 1278.45,592.09 1280.45,590.923 1283.5,591.5C 1285.31,591.509 1286.98,591.009 1288.5,590C 1292.12,584.991 1297.12,582.825 1303.5,583.5C 1303.72,577.322 1302.39,571.489 1299.5,566C 1299.64,565.228 1299.98,564.561 1300.5,564C 1308.19,563.353 1315.86,563.52 1323.5,564.5C 1325.46,564.977 1326.8,566.144 1327.5,568C 1322.3,574.517 1318.8,582.017 1317,590.5C 1316.03,592.305 1314.86,593.972 1313.5,595.5C 1315.41,599.578 1317.91,603.245 1321,606.5C 1319.97,602.046 1319.47,597.379 1319.5,592.5C 1322.16,589.491 1324.49,586.158 1326.5,582.5C 1325.57,581.232 1325.41,579.899 1326,578.5C 1328.2,576.07 1330.86,574.403 1334,573.5C 1334.83,569.986 1336.33,566.819 1338.5,564C 1340.71,563.83 1342.71,563.163 1344.5,562C 1339.75,555.55 1339.25,548.717 1343,541.5C 1345.43,544.934 1347.43,548.6 1349,552.5C 1350.64,562.15 1352.14,571.817 1353.5,581.5 Z"/></g>
<g><path style="opacity:1" fill="#0f1552" d="M 837.5,544.5 C 870.241,546.431 902.908,548.931 935.5,552C 937.067,549.259 939.401,548.092 942.5,548.5C 943.968,551.278 944.801,554.278 945,557.5C 946.333,558.833 947.667,560.167 949,561.5C 950.719,566.19 951.885,571.023 952.5,576C 950.757,578.019 949.59,580.186 949,582.5C 951.069,583.264 953.236,583.764 955.5,584C 958.228,586.392 961.228,588.392 964.5,590C 969,595.835 969.5,602.002 966,608.5C 961.504,612.149 958.004,616.482 955.5,621.5C 953.042,623.713 950.042,624.879 946.5,625C 939.798,631.167 937.632,638.667 940,647.5C 939.338,648.984 938.504,650.317 937.5,651.5C 896.6,646.691 855.6,643.024 814.5,640.5C 814.368,634.937 814.202,629.27 814,623.5C 812.216,619.637 812.049,615.637 813.5,611.5C 814.429,610.064 815.595,608.731 817,607.5C 818.125,600.251 821.125,593.918 826,588.5C 823.924,582.306 825.591,577.306 831,573.5C 831.45,568.241 832.784,563.241 835,558.5C 835.333,554.167 835.667,549.833 836,545.5C 836.383,544.944 836.883,544.611 837.5,544.5 Z"/></g>
<g><path style="opacity:1" fill="#51490e" d="M 631.5,558.5 C 632.927,580.454 634.26,602.454 635.5,624.5C 635.685,644.517 636.351,664.517 637.5,684.5C 637.427,686.59 637.094,688.59 636.5,690.5C 583.523,694.281 530.69,699.614 478,706.5C 476.893,706.415 475.893,706.081 475,705.5C 474.077,701.21 473.577,696.877 473.5,692.5C 470.828,665.121 467.661,637.787 464,610.5C 463.283,609.956 462.783,609.289 462.5,608.5C 461.308,598.657 459.975,588.823 458.5,579C 458.559,577.564 458.892,576.231 459.5,575C 475.916,573.073 492.249,570.907 508.5,568.5C 549.412,564.084 590.412,560.75 631.5,558.5 Z"/></g>
<g><path style="opacity:1" fill="#51490e" d="M 1353.5,581.5 C 1353.81,586.382 1352.97,591.049 1351,595.5C 1346.69,596.822 1343.02,599.155 1340,602.5C 1338.75,605.014 1338.25,607.68 1338.5,610.5C 1335.65,612.671 1334.32,615.671 1334.5,619.5C 1331.36,619.397 1328.7,618.397 1326.5,616.5C 1329.42,603.915 1333.25,591.582 1338,579.5C 1338.89,578.919 1339.89,578.585 1341,578.5C 1345.2,579.426 1349.37,580.426 1353.5,581.5 Z"/></g>
<g><path style="opacity:1" fill="#fe4342" d="M 1238.5,588.5 C 1241.4,590.648 1244.74,592.148 1248.5,593C 1254.39,594.631 1260.23,596.465 1266,598.5C 1268.03,597.565 1269.86,598.065 1271.5,600C 1289.66,606.22 1307.99,611.72 1326.5,616.5C 1328.7,618.397 1331.36,619.397 1334.5,619.5C 1337.99,626.794 1340.99,634.294 1343.5,642C 1339.5,644.667 1335.5,647.333 1331.5,650C 1330.39,652.101 1330.39,654.267 1331.5,656.5C 1330.83,658.833 1330.17,661.167 1329.5,663.5C 1331.32,668.306 1333.32,672.973 1335.5,677.5C 1333.07,678.958 1330.4,680.125 1327.5,681C 1325.55,687.281 1321.39,691.114 1315,692.5C 1278.99,679.773 1242.49,668.773 1205.5,659.5C 1200.83,659.453 1197.49,657.453 1195.5,653.5C 1200.11,638.399 1203.11,623.066 1204.5,607.5C 1206.98,598.975 1209.64,590.475 1212.5,582C 1214.5,581.333 1216.5,581.333 1218.5,582C 1225.15,584.274 1231.82,586.44 1238.5,588.5 Z"/></g>
<g><path style="opacity:1" fill="#43ff53" d="M 1361.5,675.5 C 1352.74,675.191 1344.08,675.858 1335.5,677.5C 1333.32,672.973 1331.32,668.306 1329.5,663.5C 1330.17,661.167 1330.83,658.833 1331.5,656.5C 1330.39,654.267 1330.39,652.101 1331.5,650C 1335.5,647.333 1339.5,644.667 1343.5,642C 1340.99,634.294 1337.99,626.794 1334.5,619.5C 1334.32,615.671 1335.65,612.671 1338.5,610.5C 1341.82,609.671 1345.15,608.838 1348.5,608C 1350.04,606.312 1351.04,604.312 1351.5,602C 1352.78,601.316 1353.95,601.483 1355,602.5C 1356.1,608.027 1357.77,613.36 1360,618.5C 1360.96,628.187 1362.8,637.687 1365.5,647C 1365.46,648.764 1365.12,650.431 1364.5,652C 1361.83,652.567 1359.17,653.067 1356.5,653.5C 1357.21,660.413 1359.21,666.913 1362.5,673C 1362.26,673.902 1361.92,674.735 1361.5,675.5 Z"/></g>
<g><path style="opacity:1" fill="#fe43fc" d="M 462.5,608.5 C 462.783,609.289 463.283,609.956 464,610.5C 467.661,637.787 470.828,665.121 473.5,692.5C 470.536,694.295 467.702,696.295 465,698.5C 463.074,696.869 461.24,695.035 459.5,693C 458,692.833 456.5,692.667 455,692.5C 446.7,693.872 438.534,694.706 430.5,695C 428.25,700.996 425.083,706.496 421,711.5C 420.667,715.167 420.333,718.833 420,722.5C 417.887,727.284 416.554,732.284 416,737.5C 415.196,738.804 414.029,739.471 412.5,739.5C 409.346,737.974 406.013,737.307 402.5,737.5C 402.708,739.92 402.374,742.253 401.5,744.5C 402.865,745.941 404.365,747.274 406,748.5C 406.4,752.393 405.567,756.06 403.5,759.5C 406.561,765.17 408.061,771.17 408,777.5C 404.119,779.446 400.786,782.112 398,785.5C 395.779,791.61 392.779,797.277 389,802.5C 387.429,810.21 385.262,817.71 382.5,825C 385.699,835.631 388.032,846.465 389.5,857.5C 382.416,859.769 375.082,861.435 367.5,862.5C 360.117,829.586 353.117,796.586 346.5,763.5C 350.354,761.979 352.687,759.146 353.5,755C 353.83,748.493 351.33,743.326 346,739.5C 345.393,734.723 343.727,730.39 341,726.5C 338.054,724.044 335.387,721.377 333,718.5C 330.955,714.76 330.455,710.927 331.5,707C 332.448,706.517 333.448,706.351 334.5,706.5C 329.204,683.353 324.537,660.019 320.5,636.5C 320.611,635.883 320.944,635.383 321.5,635C 345.029,630.114 368.363,624.947 391.5,619.5C 415.148,615.704 438.815,612.037 462.5,608.5 Z"/></g>
<g><path style="opacity:1" fill="#510f0e" d="M 813.5,611.5 C 812.049,615.637 812.216,619.637 814,623.5C 814.202,629.27 814.368,634.937 814.5,640.5C 815.003,660.472 814.503,680.472 813,700.5C 809.935,703.062 807.435,706.062 805.5,709.5C 806.219,712.313 806.886,715.146 807.5,718C 807.361,719.301 806.695,720.134 805.5,720.5C 749.845,718.362 694.178,718.028 638.5,719.5C 638.613,709.63 637.947,699.963 636.5,690.5C 637.094,688.59 637.427,686.59 637.5,684.5C 636.351,664.517 635.685,644.517 635.5,624.5C 679.5,623.127 723.5,622.627 767.5,623C 770.833,621.333 774.167,619.667 777.5,618C 783.5,618 789.5,618 795.5,618C 801.485,615.728 807.485,613.561 813.5,611.5 Z"/></g>
<g><path style="opacity:1" fill="#fe4342" d="M 1097.5,621.5 C 1107.5,623.833 1117.5,626.167 1127.5,628.5C 1128.76,630.27 1130.26,631.937 1132,633.5C 1133.25,642.564 1134.75,651.564 1136.5,660.5C 1139.06,661.407 1141.56,662.407 1144,663.5C 1144.3,666.706 1144.8,669.872 1145.5,673C 1141.62,680.632 1138.12,688.465 1135,696.5C 1133.54,698.96 1131.71,701.127 1129.5,703C 1126.5,703.667 1123.5,703.667 1120.5,703C 1117.64,698.967 1114.97,694.801 1112.5,690.5C 1106.89,687.258 1104.73,688.924 1106,695.5C 1115.89,707.479 1116.72,719.979 1108.5,733C 1109.46,735.12 1109.63,737.287 1109,739.5C 1105.85,740.996 1102.68,742.496 1099.5,744C 1090.88,746.487 1082.21,748.154 1073.5,749C 1068.88,746.923 1067.05,743.423 1068,738.5C 1069.07,737.809 1070.23,737.309 1071.5,737C 1069.41,736.208 1067.58,735.041 1066,733.5C 1065.77,729.113 1065.27,724.779 1064.5,720.5C 1063.5,719.167 1062.5,719.167 1061.5,720.5C 1060.61,723.084 1060.27,725.751 1060.5,728.5C 1059.13,728.657 1057.79,728.49 1056.5,728C 1054.62,725.749 1053.12,723.249 1052,720.5C 1050.76,719.128 1049.26,718.128 1047.5,717.5C 1045.21,711.959 1044.54,706.292 1045.5,700.5C 1044.34,695.202 1043.84,689.869 1044,684.5C 1044.33,676.831 1047.33,670.498 1053,665.5C 1057.41,648.516 1055.91,632.183 1048.5,616.5C 1049.5,615.335 1050.83,614.668 1052.5,614.5C 1066.32,617.231 1080.15,619.897 1094,622.5C 1095.26,622.352 1096.42,622.018 1097.5,621.5 Z"/></g>
<g><path style="opacity:1" fill="#510f0e" d="M 955.5,621.5 C 978.514,624.725 1001.51,628.058 1024.5,631.5C 1025.41,638.147 1023.91,644.147 1020,649.5C 1018.98,653.964 1018.15,658.464 1017.5,663C 1018.65,666.124 1019.65,669.29 1020.5,672.5C 1020.27,674.798 1019.6,676.965 1018.5,679C 1019.55,683.095 1020.88,687.095 1022.5,691C 1022.04,692.301 1021.71,693.634 1021.5,695C 1023.92,702.921 1025.92,710.921 1027.5,719C 1027.17,719.833 1026.83,720.667 1026.5,721.5C 1021.97,718.811 1019.14,714.811 1018,709.5C 1015.33,706.167 1012.67,702.833 1010,699.5C 1011.74,706.347 1012.9,713.347 1013.5,720.5C 1012.18,720.33 1011.01,720.663 1010,721.5C 1007.63,725.9 1006.13,730.566 1005.5,735.5C 1002.01,735.151 999.677,736.651 998.5,740C 982.442,742.681 966.442,745.681 950.5,749C 946.351,751.238 945.685,754.071 948.5,757.5C 944.076,755.787 939.409,755.12 934.5,755.5C 934.663,757.857 934.497,760.19 934,762.5C 933.612,763.428 932.945,764.095 932,764.5C 924.562,761.853 917.062,759.52 909.5,757.5C 906.832,755.664 904.666,753.331 903,750.5C 902.854,745.157 902.854,739.824 903,734.5C 897.983,729.818 894.15,724.318 891.5,718C 894.456,714.203 896.79,710.037 898.5,705.5C 894.975,700.018 894.642,694.352 897.5,688.5C 903.284,686.628 908.951,684.461 914.5,682C 916.62,679.591 918.62,677.091 920.5,674.5C 925.5,671.667 930.5,668.833 935.5,666C 938.509,661.373 939.176,656.54 937.5,651.5C 938.504,650.317 939.338,648.984 940,647.5C 937.632,638.667 939.798,631.167 946.5,625C 950.042,624.879 953.042,623.713 955.5,621.5 Z"/></g>
<g><path style="opacity:1" fill="#fe4342" d="M 320.5,636.5 C 324.537,660.019 329.204,683.353 334.5,706.5C 333.448,706.351 332.448,706.517 331.5,707C 330.455,710.927 330.955,714.76 333,718.5C 335.387,721.377 338.054,724.044 341,726.5C 343.727,730.39 345.393,734.723 346,739.5C 351.33,743.326 353.83,748.493 353.5,755C 352.687,759.146 350.354,761.979 346.5,763.5C 333.229,767.422 319.896,771.255 306.5,775C 301.505,774.918 296.505,774.918 291.5,775C 284.65,777.086 277.65,778.42 270.5,779C 266.82,781.339 262.82,782.839 258.5,783.5C 256.192,783.635 254.192,782.969 252.5,781.5C 250.032,782.803 247.699,784.303 245.5,786C 237.315,785.988 229.315,787.155 221.5,789.5C 220.353,789.818 219.519,790.484 219,791.5C 218.042,796.123 217.375,800.79 217,805.5C 213.93,807.447 211.43,809.947 209.5,813C 207.821,813.395 206.155,813.228 204.5,812.5C 202.829,812.668 201.496,813.335 200.5,814.5C 198.459,814.854 196.626,814.854 195,814.5C 191.699,805.639 189.032,796.639 187,787.5C 181.609,780.341 177.942,772.341 176,763.5C 171.397,755.293 167.063,746.959 163,738.5C 161.237,736.281 159.237,734.281 157,732.5C 156.667,730.5 156.333,728.5 156,726.5C 153.497,723.498 151.497,720.165 150,716.5C 149.374,714.287 149.541,712.12 150.5,710C 147.806,702.073 146.806,693.907 147.5,685.5C 151.964,685.402 156.297,684.569 160.5,683C 189.174,672.915 218.174,663.915 247.5,656C 248.056,655.617 248.389,655.117 248.5,654.5C 272.475,648.506 296.475,642.506 320.5,636.5 Z"/></g>
<g><path style="opacity:1" fill="#fe4342" d="M 814.5,640.5 C 855.6,643.024 896.6,646.691 937.5,651.5C 939.176,656.54 938.509,661.373 935.5,666C 930.5,668.833 925.5,671.667 920.5,674.5C 918.62,677.091 916.62,679.591 914.5,682C 908.951,684.461 903.284,686.628 897.5,688.5C 894.642,694.352 894.975,700.018 898.5,705.5C 896.79,710.037 894.456,714.203 891.5,718C 894.15,724.318 897.983,729.818 903,734.5C 902.854,739.824 902.854,745.157 903,750.5C 904.666,753.331 906.832,755.664 909.5,757.5C 912.731,762.239 916.564,766.572 921,770.5C 924.444,776.276 928.277,781.776 932.5,787C 938.281,790.707 944.281,794.04 950.5,797C 952.5,799 954.5,801 956.5,803C 948.613,805.308 940.779,805.475 933,803.5C 930.598,804.733 928.098,805.733 925.5,806.5C 921.97,805.632 918.637,804.299 915.5,802.5C 913.853,803.278 912.52,804.444 911.5,806C 908.21,806.253 905.21,807.253 902.5,809C 899.331,809.978 896.497,809.478 894,807.5C 893.171,811.161 891.671,814.495 889.5,817.5C 883.67,814.164 877.503,813.164 871,814.5C 869.289,814.561 867.956,813.894 867,812.5C 865.457,814.378 863.624,815.878 861.5,817C 856.136,817.171 850.802,817.671 845.5,818.5C 842.664,822.835 840.497,827.501 839,832.5C 837.667,833.833 836.333,835.167 835,836.5C 831.91,832.821 829.744,828.654 828.5,824C 815.524,822.874 802.524,822.374 789.5,822.5C 789.763,817.947 790.429,813.447 791.5,809C 791.397,807.439 791.063,805.939 790.5,804.5C 791.794,802.12 792.794,799.62 793.5,797C 792.507,794.547 792.34,792.047 793,789.5C 795.333,784.833 797.667,780.167 800,775.5C 801.044,769.312 802.211,763.145 803.5,757C 803.082,754.237 802.416,751.57 801.5,749C 804.945,739.719 806.279,730.219 805.5,720.5C 806.695,720.134 807.361,719.301 807.5,718C 806.886,715.146 806.219,712.313 805.5,709.5C 807.435,706.062 809.935,703.062 813,700.5C 814.503,680.472 815.003,660.472 814.5,640.5 Z"/></g>
<g><path style="opacity:1" fill="#510f0e" d="M 1205.5,659.5 C 1242.49,668.773 1278.99,679.773 1315,692.5C 1321.39,691.114 1325.55,687.281 1327.5,681C 1330.4,680.125 1333.07,678.958 1335.5,677.5C 1344.08,675.858 1352.74,675.191 1361.5,675.5C 1365.13,675.795 1367.13,677.795 1367.5,681.5C 1366.88,681.611 1366.38,681.944 1366,682.5C 1364.59,690.134 1362.26,697.467 1359,704.5C 1358.5,706.81 1358.34,709.143 1358.5,711.5C 1358.22,712.289 1357.72,712.956 1357,713.5C 1356.46,720.379 1355.62,727.212 1354.5,734C 1354.74,734.902 1355.08,735.735 1355.5,736.5C 1352.91,744.436 1350.41,752.436 1348,760.5C 1345.63,762.539 1343.63,764.872 1342,767.5C 1338.66,776.214 1335.33,784.88 1332,793.5C 1330.59,797.728 1329.75,802.061 1329.5,806.5C 1318.96,802.402 1308.3,798.569 1297.5,795C 1291.53,790.357 1287.03,784.524 1284,777.5C 1282.37,768.567 1278.37,760.9 1272,754.5C 1271.18,752.299 1271.68,750.466 1273.5,749C 1275.81,748.503 1278.14,748.337 1280.5,748.5C 1280.66,745.472 1279.99,742.639 1278.5,740C 1279.38,737.121 1281.04,734.787 1283.5,733C 1273.35,724.339 1261.85,718.173 1249,714.5C 1245.46,715.744 1241.96,715.578 1238.5,714C 1232.44,711.551 1226.6,708.718 1221,705.5C 1221.16,699.846 1223.49,695.18 1228,691.5C 1228.67,690.5 1228.67,689.5 1228,688.5C 1221.07,679.566 1213.4,671.233 1205,663.5C 1204.42,662.072 1204.59,660.738 1205.5,659.5 Z"/></g>
<g><path style="opacity:1" fill="#fe4342" d="M 1367.5,681.5 C 1371.51,682.911 1374.84,685.411 1377.5,689C 1381.95,690.814 1386.29,692.814 1390.5,695C 1394.78,699.133 1399.45,702.633 1404.5,705.5C 1401.19,711.439 1398.85,717.773 1397.5,724.5C 1384.7,719.566 1371.7,715.232 1358.5,711.5C 1358.34,709.143 1358.5,706.81 1359,704.5C 1362.26,697.467 1364.59,690.134 1366,682.5C 1366.38,681.944 1366.88,681.611 1367.5,681.5 Z"/></g>
<g><path style="opacity:1" fill="#fe4342" d="M 636.5,690.5 C 637.947,699.963 638.613,709.63 638.5,719.5C 638.077,720.265 637.743,721.098 637.5,722C 639.681,755.459 641.348,788.959 642.5,822.5C 557.185,827.164 472.851,838.831 389.5,857.5C 388.032,846.465 385.699,835.631 382.5,825C 385.262,817.71 387.429,810.21 389,802.5C 392.779,797.277 395.779,791.61 398,785.5C 400.786,782.112 404.119,779.446 408,777.5C 408.061,771.17 406.561,765.17 403.5,759.5C 405.567,756.06 406.4,752.393 406,748.5C 404.365,747.274 402.865,745.941 401.5,744.5C 402.374,742.253 402.708,739.92 402.5,737.5C 406.013,737.307 409.346,737.974 412.5,739.5C 414.029,739.471 415.196,738.804 416,737.5C 416.554,732.284 417.887,727.284 420,722.5C 420.333,718.833 420.667,715.167 421,711.5C 425.083,706.496 428.25,700.996 430.5,695C 438.534,694.706 446.7,693.872 455,692.5C 456.5,692.667 458,692.833 459.5,693C 461.24,695.035 463.074,696.869 465,698.5C 467.702,696.295 470.536,694.295 473.5,692.5C 473.577,696.877 474.077,701.21 475,705.5C 475.893,706.081 476.893,706.415 478,706.5C 530.69,699.614 583.523,694.281 636.5,690.5 Z"/></g>
<g><path style="opacity:1" fill="#510f0e" d="M 1404.5,705.5 C 1406.23,706.117 1407.73,707.117 1409,708.5C 1409.74,712.11 1410.91,715.443 1412.5,718.5C 1412.2,722.326 1410.37,725.326 1407,727.5C 1404.03,725.937 1400.86,724.937 1397.5,724.5C 1398.85,717.773 1401.19,711.439 1404.5,705.5 Z"/></g>
<g><path style="opacity:1" fill="#43ff53" d="M 1358.5,711.5 C 1371.7,715.232 1384.7,719.566 1397.5,724.5C 1400.86,724.937 1404.03,725.937 1407,727.5C 1410.37,725.326 1412.2,722.326 1412.5,718.5C 1413.63,717.286 1414.96,716.286 1416.5,715.5C 1421.35,716.187 1424.52,718.854 1426,723.5C 1426.84,721.993 1428,721.493 1429.5,722C 1433.24,725.947 1437.07,729.781 1441,733.5C 1442.51,736.024 1443.18,738.691 1443,741.5C 1438.97,743.934 1434.8,745.934 1430.5,747.5C 1430.85,743.633 1432.18,740.133 1434.5,737C 1434.33,736.167 1434.17,735.333 1434,734.5C 1431.04,732.756 1427.87,732.256 1424.5,733C 1421.98,736.234 1419.65,739.567 1417.5,743C 1412.51,742.657 1410.18,744.99 1410.5,750C 1410.4,752.807 1411.4,755.14 1413.5,757C 1411.72,759.223 1409.39,760.39 1406.5,760.5C 1402.73,758.57 1399.73,755.736 1397.5,752C 1389.81,748.818 1382.14,745.651 1374.5,742.5C 1368.15,740.494 1361.82,738.494 1355.5,736.5C 1355.08,735.735 1354.74,734.902 1354.5,734C 1355.62,727.212 1356.46,720.379 1357,713.5C 1357.72,712.956 1358.22,712.289 1358.5,711.5 Z"/></g>
<g><path style="opacity:1" fill="#0f1552" d="M 805.5,720.5 C 806.279,730.219 804.945,739.719 801.5,749C 802.416,751.57 803.082,754.237 803.5,757C 802.211,763.145 801.044,769.312 800,775.5C 797.667,780.167 795.333,784.833 793,789.5C 792.34,792.047 792.507,794.547 793.5,797C 792.794,799.62 791.794,802.12 790.5,804.5C 791.063,805.939 791.397,807.439 791.5,809C 790.429,813.447 789.763,817.947 789.5,822.5C 740.514,818.59 691.514,818.59 642.5,822.5C 641.348,788.959 639.681,755.459 637.5,722C 637.743,721.098 638.077,720.265 638.5,719.5C 694.178,718.028 749.845,718.362 805.5,720.5 Z"/></g>
<g><path style="opacity:1" fill="#fe4342" d="M 1013.5,720.5 C 1018.03,726.891 1021.53,733.891 1024,741.5C 1025.44,740.74 1026.94,740.074 1028.5,739.5C 1031.64,743.669 1032.81,743.336 1032,738.5C 1032.69,737.643 1033.52,736.977 1034.5,736.5C 1037.09,742.591 1041.42,746.757 1047.5,749C 1054.64,758.686 1063.3,760.186 1073.5,753.5C 1075.33,755.487 1076.33,757.821 1076.5,760.5C 1079.5,759.658 1082.5,759.158 1085.5,759C 1087.8,760.263 1088.63,762.097 1088,764.5C 1084.9,766.303 1082.06,768.47 1079.5,771C 1074.25,770.039 1068.92,769.706 1063.5,770C 1060.87,773.799 1060.87,777.633 1063.5,781.5C 1063.17,781.833 1062.83,782.167 1062.5,782.5C 1054.13,778.069 1045.47,774.236 1036.5,771C 1033.66,767.757 1030.33,765.257 1026.5,763.5C 1022.2,764.21 1017.86,764.71 1013.5,765C 1007.71,770.06 1001.05,773.227 993.5,774.5C 989.778,771.578 988.612,772.578 990,777.5C 992.248,779.816 994.581,782.15 997,784.5C 997.937,787.656 999.437,790.489 1001.5,793C 995.5,792.557 989.834,790.89 984.5,788C 977.264,780.932 970.264,773.766 963.5,766.5C 961.138,765.729 958.804,764.895 956.5,764C 954.826,760.481 952.159,758.315 948.5,757.5C 945.685,754.071 946.351,751.238 950.5,749C 966.442,745.681 982.442,742.681 998.5,740C 999.677,736.651 1002.01,735.151 1005.5,735.5C 1006.13,730.566 1007.63,725.9 1010,721.5C 1011.01,720.663 1012.18,720.33 1013.5,720.5 Z"/></g>
<g><path style="opacity:1" fill="#0f1552" d="M 1355.5,736.5 C 1361.82,738.494 1368.15,740.494 1374.5,742.5C 1371.77,752.362 1369.44,762.362 1367.5,772.5C 1368.89,780.776 1369.72,789.109 1370,797.5C 1372.32,800.468 1373.82,803.801 1374.5,807.5C 1371.79,811.927 1369.46,816.594 1367.5,821.5C 1354.6,816.871 1341.93,811.871 1329.5,806.5C 1329.75,802.061 1330.59,797.728 1332,793.5C 1335.33,784.88 1338.66,776.214 1342,767.5C 1343.63,764.872 1345.63,762.539 1348,760.5C 1350.41,752.436 1352.91,744.436 1355.5,736.5 Z"/></g>
<g><path style="opacity:1" fill="#510f0e" d="M 1374.5,742.5 C 1382.14,745.651 1389.81,748.818 1397.5,752C 1399.73,755.736 1402.73,758.57 1406.5,760.5C 1407.71,763.204 1407.71,765.871 1406.5,768.5C 1403.14,768.07 1400.3,769.07 1398,771.5C 1391,789.833 1384,808.167 1377,826.5C 1376.5,828.473 1376.34,830.473 1376.5,832.5C 1370.21,831.545 1367.21,827.878 1367.5,821.5C 1369.46,816.594 1371.79,811.927 1374.5,807.5C 1373.82,803.801 1372.32,800.468 1370,797.5C 1369.72,789.109 1368.89,780.776 1367.5,772.5C 1369.44,762.362 1371.77,752.362 1374.5,742.5 Z"/></g>
<g><path style="opacity:1" fill="#510f0e" d="M 346.5,763.5 C 353.117,796.586 360.117,829.586 367.5,862.5C 324.092,873.599 281.092,885.765 238.5,899C 242.362,894.771 245.862,890.271 249,885.5C 249.981,882.216 249.147,879.549 246.5,877.5C 248.411,871.624 249.244,865.624 249,859.5C 246.815,858.072 244.815,856.405 243,854.5C 242.667,850.833 242.333,847.167 242,843.5C 238.809,839.329 234.642,837.496 229.5,838C 227.329,839.174 226.329,841.007 226.5,843.5C 234.718,840.443 239.384,843.277 240.5,852C 238.874,853.819 236.874,855.152 234.5,856C 238.026,858.026 240.693,860.859 242.5,864.5C 234.29,869.581 225.623,873.914 216.5,877.5C 211.541,880.568 207.041,884.235 203,888.5C 199.751,885.43 197.584,881.763 196.5,877.5C 197.408,867.835 198.408,858.168 199.5,848.5C 199.125,846.541 198.459,844.707 197.5,843C 198.759,842.077 200.092,841.243 201.5,840.5C 199.973,838.807 198.64,836.973 197.5,835C 198.708,832.75 200.041,830.583 201.5,828.5C 200.579,826.244 198.912,825.244 196.5,825.5C 196.149,823.131 195.982,820.797 196,818.5C 197.667,817.267 199.167,815.933 200.5,814.5C 201.496,813.335 202.829,812.668 204.5,812.5C 206.155,813.228 207.821,813.395 209.5,813C 211.43,809.947 213.93,807.447 217,805.5C 217.375,800.79 218.042,796.123 219,791.5C 219.519,790.484 220.353,789.818 221.5,789.5C 229.315,787.155 237.315,785.988 245.5,786C 247.699,784.303 250.032,782.803 252.5,781.5C 254.192,782.969 256.192,783.635 258.5,783.5C 262.82,782.839 266.82,781.339 270.5,779C 277.65,778.42 284.65,777.086 291.5,775C 296.505,774.918 301.505,774.918 306.5,775C 319.896,771.255 333.229,767.422 346.5,763.5 Z"/></g>
<g><path style="opacity:1" fill="#fe4342" d="M 1406.5,768.5 C 1409.22,777.152 1412.05,785.819 1415,794.5C 1417.85,796.598 1420.52,798.931 1423,801.5C 1425.3,805.797 1428.3,809.464 1432,812.5C 1433.34,817.864 1433.68,823.197 1433,828.5C 1433.41,828.957 1433.91,829.291 1434.5,829.5C 1435.87,826.271 1438.21,825.104 1441.5,826C 1442.79,828.087 1443.96,830.254 1445,832.5C 1446.49,834.004 1448.32,834.837 1450.5,835C 1451.19,836.067 1451.69,837.234 1452,838.5C 1458.1,842.598 1462.77,847.931 1466,854.5C 1466.67,856.5 1466.67,858.5 1466,860.5C 1462.71,866.067 1457.88,869.567 1451.5,871C 1449.83,873.333 1448.17,875.667 1446.5,878C 1443.92,879.783 1441.09,880.949 1438,881.5C 1433.82,891.699 1429.82,902.032 1426,912.5C 1422.54,919.148 1417.04,921.981 1409.5,921C 1407.96,917.456 1405.29,915.456 1401.5,915C 1399.65,912.982 1397.65,911.149 1395.5,909.5C 1392.39,911.475 1389.56,913.808 1387,916.5C 1384.42,908.709 1382.59,900.709 1381.5,892.5C 1381.06,879.183 1380.9,865.849 1381,852.5C 1380.23,849.789 1379.06,847.289 1377.5,845C 1377.76,843.739 1378.43,842.739 1379.5,842C 1379,838.62 1378,835.453 1376.5,832.5C 1376.34,830.473 1376.5,828.473 1377,826.5C 1384,808.167 1391,789.833 1398,771.5C 1400.3,769.07 1403.14,768.07 1406.5,768.5 Z"/></g>
</svg>
