<?xml version="1.0" encoding="UTF-8"?>
<!DOCTYPE svg PUBLIC "-//W3C//DTD SVG 1.1//EN" "http://www.w3.org/Graphics/SVG/1.1/DTD/svg11.dtd">
<svg xmlns="http://www.w3.org/2000/svg" version="1.1" width="1186px" height="1451px" style="shape-rendering:geometricPrecision; text-rendering:geometricPrecision; image-rendering:optimizeQuality; fill-rule:evenodd; clip-rule:evenodd" xmlns:xlink="http://www.w3.org/1999/xlink">
<g><path style="opacity:1" fill="#fc8385" d="M 374.5,51.5 C 374.5,54.8333 374.5,58.1667 374.5,61.5C 376.5,61.5 378.5,61.5 380.5,61.5C 383.286,64.2262 386.619,65.8928 390.5,66.5C 390.414,67.4959 390.748,68.3292 391.5,69C 389.381,69.0976 387.714,69.9309 386.5,71.5C 381.015,72.1668 375.681,72.8335 370.5,73.5C 365.467,73.3279 360.467,73.1612 355.5,73C 353.3,75.2336 351.467,77.7336 350,80.5C 349.298,86.8943 348.298,93.2276 347,99.5C 345.559,100.26 344.059,100.926 342.5,101.5C 339.75,96.6836 336.584,96.3502 333,100.5C 328.934,108.666 327.601,117.333 329,126.5C 335.775,131.051 339.108,137.384 339,145.5C 340.185,147.87 341.351,150.203 342.5,152.5C 340.709,155.248 340.209,158.248 341,161.5C 343,164.167 345,166.833 347,169.5C 347.333,172.833 347.667,176.167 348,179.5C 349.859,180.645 350.693,182.312 350.5,184.5C 349.369,188.096 347.702,191.429 345.5,194.5C 346.186,196.347 347.186,198.014 348.5,199.5C 348.167,200.833 347.833,202.167 347.5,203.5C 349.085,206.667 350.085,210 350.5,213.5C 350.167,214.833 349.833,216.167 349.5,217.5C 347.253,218.374 344.92,218.708 342.5,218.5C 342.261,220.467 342.594,222.301 343.5,224C 347.486,224.499 351.486,224.666 355.5,224.5C 353.692,229.626 350.025,231.959 344.5,231.5C 345.004,235.507 345.17,239.507 345,243.5C 344.047,245.455 342.713,247.122 341,248.5C 342.486,252.552 341.486,255.885 338,258.5C 337.333,263.167 337.333,267.833 338,272.5C 339.973,275.464 341.473,278.631 342.5,282C 341.346,284.786 340.179,287.619 339,290.5C 338.912,295.656 338.079,300.656 336.5,305.5C 339.874,319.815 343.04,334.148 346,348.5C 347.789,350.229 349.956,350.896 352.5,350.5C 350.991,355.201 349.158,359.868 347,364.5C 345.668,374.471 345.335,384.471 346,394.5C 346.637,396.303 347.803,397.636 349.5,398.5C 350.298,400.078 350.798,401.744 351,403.5C 354.184,404.216 355.684,406.216 355.5,409.5C 354.027,414.076 353.527,418.743 354,423.5C 355.299,424.09 356.132,425.09 356.5,426.5C 357.429,433.36 360.263,439.36 365,444.5C 365.999,450.482 366.332,456.482 366,462.5C 364.758,463.872 363.258,464.872 361.5,465.5C 360.832,467.969 360.165,470.302 359.5,472.5C 358.542,472.953 357.708,473.619 357,474.5C 356.502,477.482 356.335,480.482 356.5,483.5C 355.475,484.374 354.808,485.541 354.5,487C 355.394,488.396 356.061,489.896 356.5,491.5C 353.844,495.704 352.178,500.37 351.5,505.5C 351.221,508.006 352.054,510.006 354,511.5C 352.281,520.012 355.281,526.012 363,529.5C 363.667,532.833 363.667,536.167 363,539.5C 359.032,545.068 359.699,549.735 365,553.5C 365.333,558.833 365.667,564.167 366,569.5C 372.926,577.535 378.426,586.368 382.5,596C 385.482,596.498 388.482,596.665 391.5,596.5C 391.662,598.527 391.495,600.527 391,602.5C 388.194,604.287 386.694,606.787 386.5,610C 387.315,613.132 387.982,616.299 388.5,619.5C 387.5,623.5 386.5,627.5 385.5,631.5C 387.041,638.038 387.874,644.705 388,651.5C 388.833,652.333 389.667,653.167 390.5,654C 398.758,656.215 405.924,660.381 412,666.5C 414.991,673.178 415.158,679.845 412.5,686.5C 408.587,685.404 404.587,685.238 400.5,686C 398.951,687.214 397.785,688.714 397,690.5C 394.998,699.174 392.998,707.841 391,716.5C 389.023,720.766 386.856,724.932 384.5,729C 385.33,730.465 385.496,731.965 385,733.5C 377.033,738.888 376.533,744.721 383.5,751C 382.606,752.396 381.939,753.896 381.5,755.5C 382.523,757.003 383.523,758.503 384.5,760C 381.353,764.147 377.853,767.98 374,771.5C 372.177,777.356 371.01,783.356 370.5,789.5C 369.5,790.167 368.5,790.833 367.5,791.5C 367.026,794.217 366.026,796.55 364.5,798.5C 362.629,798.141 361.129,797.141 360,795.5C 359.654,792.424 358.988,789.424 358,786.5C 353.45,783.327 348.95,780.327 344.5,777.5C 345.591,767.539 347.258,757.706 349.5,748C 348.982,744.467 348.316,740.967 347.5,737.5C 350.694,723.658 351.361,709.658 349.5,695.5C 349.346,692.251 350.012,689.251 351.5,686.5C 349.897,683.72 348.063,681.054 346,678.5C 345.506,676.866 345.34,675.199 345.5,673.5C 346.5,673.5 347.5,673.5 348.5,673.5C 347.252,666.751 345.585,660.084 343.5,653.5C 345.551,648.343 347.218,643.01 348.5,637.5C 348.333,636.167 348.167,634.833 348,633.5C 345.852,632.023 344.518,630.023 344,627.5C 343.125,622.122 343.625,616.955 345.5,612C 344.927,607.842 344.427,603.676 344,599.5C 343.527,597.221 342.527,595.221 341,593.5C 340.722,589.806 340.722,586.139 341,582.5C 339.171,580.844 337.837,578.844 337,576.5C 337.956,568.576 335.79,561.742 330.5,556C 332.787,551.928 334.953,547.761 337,543.5C 337.036,537.513 336.869,531.513 336.5,525.5C 331.602,525.637 329.602,523.137 330.5,518C 331.235,505.573 333.568,493.573 337.5,482C 337.131,476.064 335.465,470.564 332.5,465.5C 334.234,461.299 334.734,456.965 334,452.5C 331.986,450.817 330.32,448.817 329,446.5C 328.314,437.103 325.981,428.103 322,419.5C 321.047,417.545 319.713,415.878 318,414.5C 317.502,412.473 317.669,410.473 318.5,408.5C 315.898,403.52 314.398,398.187 314,392.5C 312.89,390.963 311.39,390.297 309.5,390.5C 309.786,388.723 310.453,387.056 311.5,385.5C 310.777,383.218 310.443,380.884 310.5,378.5C 308.473,378.662 306.473,378.495 304.5,378C 303.941,377.275 303.608,376.442 303.5,375.5C 
304.833,372.833 304.833,370.167 303.5,367.5C 304.137,364.893 305.304,362.56 307,360.5C 306.119,353.14 308.119,346.806 313,341.5C 313.667,337.833 313.667,334.167 313,330.5C 310.484,326.129 307.984,321.796 305.5,317.5C 307.997,313.585 307.997,309.752 305.5,306C 306.174,301.529 306.34,297.029 306,292.5C 308.81,289.989 311.31,287.155 313.5,284C 314.944,283.219 316.277,283.386 317.5,284.5C 318.106,286.709 318.773,288.876 319.5,291C 320.833,291.667 322.167,291.667 323.5,291C 326.153,286.959 329.486,286.459 333.5,289.5C 334.833,288.167 334.833,286.833 333.5,285.5C 331.587,284.627 329.753,283.627 328,282.5C 327.517,281.552 327.351,280.552 327.5,279.5C 329.5,279.5 331.5,279.5 333.5,279.5C 333.5,277.5 333.5,275.5 333.5,273.5C 331.396,273.799 329.396,273.466 327.5,272.5C 328.752,270.999 329.752,269.332 330.5,267.5C 327.425,265.702 326.758,263.202 328.5,260C 327.109,255.885 325.443,251.885 323.5,248C 324.897,246.039 325.897,243.872 326.5,241.5C 325.5,239.5 324.5,237.5 323.5,235.5C 325.865,231.98 329.198,229.98 333.5,229.5C 333.005,222.003 329.005,217.67 321.5,216.5C 321.5,215.5 321.5,214.5 321.5,213.5C 323.665,213.884 325.332,213.217 326.5,211.5C 324.604,210.534 322.604,210.201 320.5,210.5C 320.682,208.409 320.348,206.409 319.5,204.5C 322.324,197.237 321.658,190.237 317.5,183.5C 316.526,185.743 316.192,188.076 316.5,190.5C 314.143,190.337 311.81,190.503 309.5,191C 310.423,193.041 310.756,195.208 310.5,197.5C 305.833,197.5 301.167,197.5 296.5,197.5C 296.5,195.833 296.5,194.167 296.5,192.5C 297.833,192.5 299.167,192.5 300.5,192.5C 300.657,191.127 300.49,189.793 300,188.5C 298.951,189.517 297.784,189.684 296.5,189C 294.295,186.46 291.795,184.293 289,182.5C 288.333,180.833 288.333,179.167 289,177.5C 290.46,174.79 292.46,174.124 295,175.5C 294.848,177.519 294.348,179.519 293.5,181.5C 295.484,181.383 297.15,182.05 298.5,183.5C 299.394,180.353 301.228,178.02 304,176.5C 305.136,177.783 306.469,178.783 308,179.5C 310.099,178.713 312.266,178.38 314.5,178.5C 314.037,175.518 313.704,172.518 313.5,169.5C 310.5,169.833 309.167,168.5 309.5,165.5C 310.479,164.235 311.479,162.901 312.5,161.5C 311.167,160.833 309.833,160.167 308.5,159.5C 308.833,158.833 309.167,158.167 309.5,157.5C 312.524,155.478 315.857,154.478 319.5,154.5C 319.5,155.833 319.5,157.167 319.5,158.5C 320.93,158.579 322.264,158.246 323.5,157.5C 324.59,155.209 325.09,152.876 325,150.5C 320.129,153.006 314.963,153.839 309.5,153C 311.295,149.256 313.629,145.923 316.5,143C 315.081,137.118 315.247,131.285 317,125.5C 317.414,125.043 317.914,124.709 318.5,124.5C 319.258,125.811 320.258,126.311 321.5,126C 322.127,123.657 323.127,121.49 324.5,119.5C 318.984,117.977 315.984,114.31 315.5,108.5C 317.19,105.976 319.357,103.976 322,102.5C 324.093,99.2324 325.426,95.5658 326,91.5C 328.111,89.8983 329.611,87.8983 330.5,85.5C 329.751,83.9644 328.751,82.6311 327.5,81.5C 329.299,77.3617 332.299,74.695 336.5,73.5C 339.603,73.2019 341.27,74.5352 341.5,77.5C 342.833,77.5 344.167,77.5 345.5,77.5C 345.238,78.9778 345.571,80.3112 346.5,81.5C 347.086,81.2907 347.586,80.9574 348,80.5C 348.667,77.1667 348.667,73.8333 348,70.5C 347,71.8333 346,73.1667 345,74.5C 344.798,72.7444 344.298,71.0777 343.5,69.5C 342.614,70.325 342.281,71.325 342.5,72.5C 339.438,72.1558 336.438,71.4891 333.5,70.5C 334.98,67.241 335.98,63.9076 336.5,60.5C 337.5,60.5 338.5,60.5 339.5,60.5C 339.5,59.5 339.5,58.5 339.5,57.5C 335.483,58.1614 334.149,56.8281 335.5,53.5C 337.819,52.833 340.153,52.6664 342.5,53C 344.69,55.6161 346.024,58.6161 346.5,62C 348.107,61.9813 349.774,61.8146 351.5,61.5C 351.5,62.5 351.5,63.5 351.5,64.5C 354.85,64.665 358.183,64.4983 361.5,64C 362.337,62.9887 362.67,61.8221 362.5,60.5C 358.79,61.028 355.623,60.028 353,57.5C 351.118,58.606 349.284,58.606 347.5,57.5C 
346.771,55.0238 346.104,52.5238 345.5,50C 346.693,47.4035 348.693,46.4035 351.5,47C 354.635,50.4006 358.302,53.0673 362.5,55C 364.37,59.8563 367.037,60.523 370.5,57C 367.293,54.2929 364.627,51.1263 362.5,47.5C 361.833,48.1667 361.167,48.8333 360.5,49.5C 354.353,46.7831 354.02,43.6164 359.5,40C 363.555,37.7923 
367.721,37.2923 372,38.5C 372.996,42.8157 373.83,47.1491 374.5,51.5 Z"/></g>
<g><path style="opacity:1" fill="#b2cb75" d="M 403.5,68.5 C 405.167,68.5 406.833,68.5 408.5,68.5C 407.577,71.2596 405.744,73.2596 403,74.5C 402.683,80.656 399.516,83.3227 393.5,82.5C 393.703,84.6382 394.703,86.3049 396.5,87.5C 395.811,89.444 395.311,91.444 395,93.5C 393.795,94.0712 392.628,94.7379 391.5,95.5C 393.795,98.4237 395.295,101.757 396,105.5C 398.861,108.085 401.361,110.918 403.5,114C 403.241,115.261 402.574,116.261 401.5,117C 402.167,117.667 402.833,117.667 403.5,117C 405.386,113.891 408.053,112.891 411.5,114C 415.615,117.187 417.948,121.353 418.5,126.5C 417.5,126.5 416.5,126.5 415.5,126.5C 415.34,128.199 415.506,129.866 416,131.5C 421.509,142.847 430.009,150.847 441.5,155.5C 441.421,156.93 441.754,158.264 442.5,159.5C 438.71,161.358 438.71,163.025 442.5,164.5C 443.192,167.163 444.192,169.663 445.5,172C 445.095,172.945 444.428,173.612 443.5,174C 434.404,175.012 427.07,179.012 421.5,186C 416.11,188.096 413.443,192.096 413.5,198C 418.019,215.443 429.352,223.276 447.5,221.5C 442.748,227.135 444.082,230.468 451.5,231.5C 450.881,235.662 450.215,239.828 449.5,244C 451.848,248.206 453.515,252.706 454.5,257.5C 457.748,258.645 461.081,259.479 464.5,260C 465.337,261.011 465.67,262.178 465.5,263.5C 462.834,263.933 460.168,264.433 457.5,265C 456.978,265.561 456.645,266.228 456.5,267C 458.633,268.916 460.966,270.749 463.5,272.5C 462.5,273.833 461.5,275.167 460.5,276.5C 453.712,279.067 451.712,283.9 454.5,291C 451.734,295.785 450.901,300.951 452,306.5C 453.667,307.5 455.333,308.5 457,309.5C 458.001,306.784 459.668,306.118 462,307.5C 466.781,305.333 471.614,303.166 476.5,301C 478.667,300.833 480.833,300.667 483,300.5C 489.204,301.012 495.038,302.845 500.5,306C 501.097,307.062 501.43,308.228 501.5,309.5C 501.069,311.754 500.403,313.921 499.5,316C 501.3,319.264 501.8,322.764 501,326.5C 498.705,328.08 497.372,330.08 497,332.5C 499.07,330.213 501.57,328.547 504.5,327.5C 508.802,331.42 508.469,334.92 503.5,338C 503.735,338.873 504.069,339.707 504.5,340.5C 503.618,343.791 502.952,347.124 502.5,350.5C 506.147,349.684 509.48,348.184 512.5,346C 536.843,345.257 560.177,349.59 582.5,359C 587.941,367.107 594.108,374.607 601,381.5C 602.826,384.603 604.16,387.937 605,391.5C 606.165,395.684 604.665,398.517 600.5,400C 596.229,399.792 594.229,401.792 594.5,406C 595.868,410.76 596.368,415.593 596,420.5C 590.711,424.621 585.878,429.288 581.5,434.5C 579.973,438.761 578.14,442.761 576,446.5C 575.19,450.358 575.357,454.024 576.5,457.5C 576.065,463.308 578.732,465.975 584.5,465.5C 584.294,471.865 584.627,478.198 585.5,484.5C 585.125,486.916 584.459,489.25 583.5,491.5C 585.439,494.615 587.606,497.615 590,500.5C 590.333,504.5 590.667,508.5 591,512.5C 591.667,513.167 592.333,513.833 593,514.5C 592.297,519.807 594.13,523.807 598.5,526.5C 599.439,529.241 601.273,531.241 604,532.5C 604.471,534.246 605.138,535.913 606,537.5C 609.444,539.157 612.61,541.324 615.5,544C 617.487,545.319 618.654,547.152 619,549.5C 620.171,550.893 621.671,551.727 623.5,552C 627.05,555.385 630.05,559.219 632.5,563.5C 633.548,564.383 634.715,565.05 636,565.5C 637.465,564.67 638.965,564.504 640.5,565C 639.483,566.049 639.316,567.216 640,568.5C 642.204,570.017 644.538,571.35 647,572.5C 648.689,574.76 649.856,577.26 650.5,580C 652.5,580.333 654.5,580.667 656.5,581C 662.433,584.595 668.6,587.761 675,590.5C 675.774,594.049 677.107,597.382 679,600.5C 679.27,604.373 679.77,608.206 680.5,612C 678.228,614.926 676.895,618.259 676.5,622C 672.812,622.45 669.146,622.283 665.5,621.5C 664.322,615.44 662.822,609.44 661,603.5C 658.772,601.032 655.938,599.865 652.5,600C 651.778,597.213 650.278,596.38 648,597.5C 645.384,596.385 642.884,595.051 640.5,593.5C 639.52,590.914 639.187,588.247 639.5,585.5C 628.481,588.105 617.481,588.105 606.5,585.5C 603.852,585.967 601.519,587.134 599.5,589C 
593.542,589.814 587.708,590.314 582,590.5C 581.365,592.635 581.699,594.635 583,596.5C 588.119,601.069 590.786,606.735 591,613.5C 595.01,618.341 599.177,623.008 603.5,627.5C 602.6,629.239 601.933,631.072 601.5,633C 602.244,634.855 603.244,636.521 604.5,638C 602.108,640.711 599.108,642.711 595.5,644C 593.167,646.333 590.833,648.667 588.5,651C 582.815,652.241 577.149,653.574 571.5,655C 570.663,656.011 570.33,657.178 570.5,658.5C 562.008,659.974 553.341,660.808 544.5,661C 539.376,667.13 533.376,672.13 526.5,676C 520.123,681.273 515.623,687.773 513,695.5C 511.008,696.328 509.508,697.661 508.5,699.5C 506.254,700.21 503.92,700.71 501.5,701C 500.833,702.333 500.167,703.667 499.5,705C 492.467,705.241 485.467,704.741 478.5,703.5C 475.244,698.987 473.078,693.987 472,688.5C 470.062,687.14 468.396,687.473 467,689.5C 465.472,692.417 464.139,695.417 463,698.5C 461.068,700.038 458.901,701.205 456.5,702C 455.257,703.154 454.257,704.488 
453.5,706C 450.364,705.744 447.197,705.244 444,704.5C 440.613,705.52 437.28,706.854 434,708.5C 425.336,702.669 418.169,695.336 412.5,686.5C 415.158,679.845 414.991,673.178 412,666.5C 405.924,660.381 398.758,656.215 390.5,654C 389.667,653.167 388.833,652.333 388,651.5C 387.874,644.705 387.041,638.038 385.5,631.5C 386.5,627.5 387.5,623.5 388.5,619.5C 387.982,616.299 387.315,613.132 386.5,610C 386.694,606.787 388.194,604.287 391,602.5C 391.495,600.527 391.662,598.527 391.5,596.5C 388.482,596.665 385.482,596.498 382.5,596C 378.426,586.368 372.926,577.535 366,569.5C 365.667,564.167 365.333,558.833 365,553.5C 359.699,549.735 359.032,545.068 363,539.5C 363.667,536.167 363.667,532.833 363,529.5C 355.281,526.012 352.281,520.012 354,511.5C 352.054,510.006 351.221,508.006 351.5,505.5C 352.178,500.37 353.844,495.704 356.5,491.5C 356.061,489.896 355.394,488.396 354.5,487C 354.808,485.541 355.475,484.374 356.5,483.5C 357.386,479.917 
358.386,476.25 359.5,472.5C 360.165,470.302 360.832,467.969 361.5,465.5C 363.258,464.872 364.758,463.872 366,462.5C 366.332,456.482 365.999,450.482 365,444.5C 360.263,439.36 357.429,433.36 356.5,426.5C 356.132,425.09 355.299,424.09 354,423.5C 353.527,418.743 354.027,414.076 355.5,409.5C 355.684,406.216 354.184,404.216 351,403.5C 350.798,401.744 350.298,400.078 349.5,398.5C 347.803,397.636 346.637,396.303 346,394.5C 345.335,384.471 345.668,374.471 347,364.5C 349.158,359.868 350.991,355.201 352.5,350.5C 349.956,350.896 347.789,350.229 346,348.5C 343.04,334.148 339.874,319.815 336.5,305.5C 338.079,300.656 338.912,295.656 339,290.5C 340.179,287.619 341.346,284.786 342.5,282C 341.473,278.631 339.973,275.464 338,272.5C 337.333,267.833 337.333,263.167 338,258.5C 341.486,255.885 342.486,252.552 341,248.5C 342.713,247.122 344.047,245.455 345,243.5C 345.17,239.507 345.004,235.507 344.5,231.5C 350.025,231.959 353.692,229.626 355.5,224.5C 351.486,224.666 347.486,224.499 343.5,224C 342.594,222.301 342.261,220.467 342.5,218.5C 344.92,218.708 347.253,218.374 349.5,217.5C 349.833,216.167 350.167,214.833 350.5,213.5C 350.085,210 349.085,206.667 347.5,203.5C 347.833,202.167 348.167,200.833 348.5,199.5C 347.186,198.014 346.186,196.347 345.5,194.5C 347.702,191.429 349.369,188.096 350.5,184.5C 350.693,182.312 349.859,180.645 348,179.5C 347.667,176.167 347.333,172.833 347,169.5C 345,166.833 343,164.167 341,161.5C 340.209,158.248 340.709,155.248 342.5,152.5C 341.351,150.203 340.185,147.87 339,145.5C 339.108,137.384 335.775,131.051 329,126.5C 327.601,117.333 328.934,108.666 333,100.5C 336.584,96.3502 339.75,96.6836 342.5,101.5C 344.059,100.926 345.559,100.26 347,99.5C 348.298,93.2276 349.298,86.8943 350,80.5C 351.467,77.7336 353.3,75.2336 355.5,73C 360.467,73.1612 365.467,73.3279 370.5,73.5C 377.841,73.6663 385.174,73.4997 392.5,73C 396.619,72.3559 400.285,70.8559 403.5,68.5 Z"/></g>
<g><path style="opacity:1" fill="#f5b2b4" d="M 671.5,448.5 C 668.354,455.774 669.687,462.274 675.5,468C 672.509,470.99 670.343,474.49 669,478.5C 661.005,483.599 653.838,489.766 647.5,497C 641.388,498.612 637.388,502.445 635.5,508.5C 628.497,502.246 624.663,503.913 624,513.5C 621.521,516.069 618.854,518.402 616,520.5C 615.55,522.519 614.717,524.352 613.5,526C 610.303,526.001 607.137,525.501 604,524.5C 601.779,524.393 599.946,525.06 598.5,526.5C 594.13,523.807 592.297,519.807 593,514.5C 592.333,513.833 591.667,513.167 591,512.5C 590.667,508.5 590.333,504.5 590,500.5C 587.606,497.615 585.439,494.615 583.5,491.5C 584.459,489.25 585.125,486.916 585.5,484.5C 584.627,478.198 584.294,471.865 584.5,465.5C 578.732,465.975 576.065,463.308 576.5,457.5C 578.11,454.811 578.943,451.811 579,448.5C 581.5,445.333 584,442.167 586.5,439C 592.939,438.936 598.606,436.936 603.5,433C 608.872,431.228 614.038,429.062 619,426.5C 626.015,427.335 633.015,427.001 640,425.5C 645.213,427.748 650.713,429.248 656.5,430C 662.789,435.122 667.789,441.289 671.5,448.5 Z"/></g>
<g><path style="opacity:1" fill="#fdfe61" d="M 671.5,448.5 C 673.308,448.491 674.975,448.991 676.5,450C 678.208,452.043 680.208,453.71 682.5,455C 688.526,462.719 693.526,471.052 697.5,480C 696.314,482.756 694.981,485.422 693.5,488C 694.257,489.512 695.257,490.846 696.5,492C 700.425,494.93 704.592,497.43 709,499.5C 711.415,506.094 714.915,512.094 719.5,517.5C 719.471,519.029 718.804,520.196 717.5,521C 718.833,521.667 720.167,521.667 721.5,521C 723.65,517.64 726.483,516.807 730,518.5C 731.608,516.233 730.775,515.233 727.5,515.5C 727.477,513.073 726.977,510.74 726,508.5C 723.209,506.701 721.042,504.367 719.5,501.5C 718.311,500.571 716.978,500.238 715.5,500.5C 715.683,498.064 715.016,495.897 713.5,494C 709.108,492.26 705.275,489.76 702,486.5C 701.127,486.735 700.293,487.069 699.5,487.5C 698.167,485.5 698.167,483.5 699.5,481.5C 718.561,490.063 732.061,504.063 740,523.5C 744.487,528.476 748.487,533.809 752,539.5C 758.33,545.818 765.33,551.152 773,555.5C 773.794,561.166 
775.46,566.499 778,571.5C 779.368,580.13 779.702,588.797 779,597.5C 776.958,599.51 777.291,601.176 780,602.5C 780.438,605.376 781.438,608.043 783,610.5C 783.896,613.025 783.396,615.192 781.5,617C 785.548,619.733 789.882,620.233 794.5,618.5C 794.178,620.722 794.845,622.556 796.5,624C 801.265,627.929 806.598,630.929 812.5,633C 814.871,635.706 817.537,638.039 820.5,640C 827.011,643.34 833.511,646.506 840,649.5C 843.105,648.633 846.272,648.299 849.5,648.5C 849.215,646.712 849.548,645.045 850.5,643.5C 853.418,645.008 854.084,647.175 852.5,650C 856.913,654.67 862.247,655.837 868.5,653.5C 868.703,655.39 868.037,656.89 866.5,658C 869.822,661.685 873.489,662.185 877.5,659.5C 882.276,662.139 887.109,662.139 892,659.5C 894.478,660.245 896.978,660.911 899.5,661.5C 906.786,660.105 914.119,659.105 921.5,658.5C 921.338,660.527 921.505,662.527 922,664.5C 927.869,669.018 934.369,672.351 941.5,674.5C 943.136,685.099 947.969,694.099 956,701.5C 959.181,707.199 962.347,712.865 965.5,718.5C 968.52,721.355 971.687,724.021 975,726.5C 978.49,734.088 980.49,742.088 981,750.5C 983.618,755.451 987.284,759.451 992,762.5C 993.329,776.817 996.996,790.484 1003,803.5C 1003.22,817.29 1004.39,830.957 1006.5,844.5C 1005.17,844.5 1003.83,844.5 1002.5,844.5C 1002.21,848.501 1003.71,851.501 1007,853.5C 1006.51,858.775 1008.18,863.108 1012,866.5C 1012.37,868.898 1012.37,871.231 1012,873.5C 1018.07,875.594 1019.9,873.594 1017.5,867.5C 1018.87,867.343 1020.21,867.51 1021.5,868C 1028.28,873.144 1034.78,878.644 1041,884.5C 1045.02,900.187 1054.85,910.354 1070.5,915C 1077.36,921.528 1084.19,928.028 1091,934.5C 1096.18,941.528 1100.85,948.861 1105,956.5C 1105.54,965.765 1106.71,974.931 1108.5,984C 1107.03,995.508 1105.53,1007.01 1104,1018.5C 1101.05,1023.44 1096.89,1026.94 1091.5,1029C 1084.73,1029.37 1078.06,1030.37 1071.5,1032C 1068.72,1035.72 1065.06,1037.89 1060.5,1038.5C 1060.43,1040.7 1059.77,1042.7 1058.5,1044.5C 1049.69,1050.14 1042.36,1057.31 1036.5,1066C 1031.92,1068.58 1027.92,1071.91 1024.5,1076C 1020.13,1078.52 1015.46,1080.52 1010.5,1082C 1007.24,1085.59 1003.24,1087.93 998.5,1089C 992.643,1089.28 986.809,1089.78 981,1090.5C 979.289,1090.56 977.956,1089.89 977,1088.5C 974.122,1089.69 971.288,1091.02 968.5,1092.5C 965.76,1096.95 962.26,1097.61 958,1094.5C 946.319,1098.34 934.986,1103.01 924,1108.5C 921.779,1105.39 919.112,1102.73 916,1100.5C 915.044,1101.58 914.211,1102.75 913.5,1104C 912.833,1104.67 912.167,1104.67 911.5,1104C 910.712,1100.92 910.212,1097.76 910,1094.5C 909.586,1094.04 909.086,1093.71 908.5,1093.5C 907.123,1095.29 906.123,1097.29 905.5,1099.5C 906.639,1103.11 908.306,1106.45 910.5,1109.5C 909.826,1112.67 907.826,1114.17 904.5,1114C 909.044,1114.02 910.544,1116.19 909,1120.5C 905.833,1123 902.667,1125.5 899.5,1128C 897.203,1128.02 894.869,1127.85 892.5,1127.5C 892.703,1129.39 892.037,1130.89 890.5,1132C 884.432,1134.2 878.765,1137.2 873.5,1141C 860.905,1144.49 848.239,1147.65 835.5,1150.5C 831.957,1149.13 828.79,1147.13 826,1144.5C 825.349,1142.76 825.515,1141.1 826.5,1139.5C 825.208,1137.33 824.375,1135 824,1132.5C 822.806,1131.57 821.473,1130.9 820,1130.5C 817.95,1131.79 815.783,1132.29 813.5,1132C 811.317,1129.65 808.984,1127.48 806.5,1125.5C 804.797,1121.2 802.63,1117.2 800,1113.5C 800.797,1118.52 801.963,1123.52 803.5,1128.5C 797.138,1127.66 790.805,1126.66 784.5,1125.5C 780.589,1125.3 776.922,1126.13 773.5,1128C 786.151,1129.48 798.818,1130.81 811.5,1132C 813.452,1134.07 815.285,1136.24 817,1138.5C 818.509,1143.4 820.509,1148.07 823,1152.5C 823.667,1153.83 823.667,1155.17 823,1156.5C 820.493,1158.16 817.659,1158.99 814.5,1159C 812.319,1160.84 809.819,1162.01 807,1162.5C 803.667,1161.17 800.333,1159.83 797,1158.5C 791.623,1160.32 786.123,1160.82 780.5,1160C 779.069,1159.53 777.903,1158.7 777,1157.5C 776.589,1152.48 776.089,1147.48 775.5,1142.5C 773.856,1142.29 772.356,1142.62 771,1143.5C 770.821,1146.55 770.321,1149.55 769.5,1152.5C 767.808,1148.28 765.474,1144.45 762.5,1141C 759.318,1139.37 755.985,1138.7 752.5,1139C 757.647,1142.24 759.98,1146.91 759.5,1153C 757.329,1163.17 761.329,1169.51 771.5,1172C 777.969,1177.47 784.136,1183.3 790,1189.5C 790.749,1190.64 790.583,1191.64 789.5,1192.5C 788.069,1192.98 786.736,1193.64 785.5,1194.5C 787.937,1195.44 789.937,1196.94 791.5,1199C 791.097,1200.47 790.43,1201.81 789.5,1203C 786.623,1204.13 783.623,1204.79 780.5,1205C 779,1207.83 776.833,1210 774,1211.5C 771.048,1223.32 768.715,1235.32 767,1247.5C 764.514,1250.44 762.681,1253.78 761.5,1257.5C 758.801,1258.73 756.135,1258.73 753.5,1257.5C 753.071,1253.98 751.571,1250.98 749,1248.5C 746.372,1246.87 744.039,1244.87 742,1242.5C 739.371,1235.85 736.704,1229.19 734,1222.5C 729.252,1218.58 723.752,1216.41 717.5,1216C 715.253,1214 714.253,1211.5 714.5,1208.5C 710.714,1208.39 707.714,1209.89 705.5,1213C 702.486,1213.13 699.486,1213.13 696.5,1213C 693.577,1215.42 691.243,1218.25 689.5,1221.5C 686.341,1222.58 683.674,1224.42 681.5,1227C 680.333,1227.17 679.167,1227.33 678,1227.5C 673.811,1226.6 669.644,1225.6 665.5,1224.5C 660.139,1226.65 657.139,1224.82 656.5,1219C 658.635,1217.01 659.635,1214.51 659.5,1211.5C 654.551,1211.32 649.884,1212.32 645.5,1214.5C 644.209,1212.68 642.376,1211.68 640,1211.5C 636.78,1212.64 633.447,1213.64 630,1214.5C 627.572,1213.74 625.739,1212.24 624.5,1210C 619.427,1210.13 615.427,1208.13 612.5,1204C 608.833,1203.67 605.167,1203.33 601.5,1203C 597.999,1197.72 593.666,1197.05 588.5,1201C 584.785,1205.59 580.952,1210.09 577,1214.5C 576.718,1219.98 574.718,1224.65 571,1228.5C 570.333,1233.17 570.333,1237.83 571,1242.5C 572.935,1245.55 574.268,1248.89 575,1252.5C 576.96,1254.04 578.46,1255.87 579.5,1258C 578.815,1260.54 577.981,1263.04 577,1265.5C 574.381,1267.98 571.381,1269.98 568,1271.5C 568.552,1275.72 568.385,1279.88 567.5,1284C 563.179,1284.5 558.846,1284.67 554.5,1284.5C 554.472,1282.42 555.139,1280.58 556.5,1279C 554.205,1275.7 551.538,1272.7 548.5,1270C 542.099,1270.71 536.766,1268.71 532.5,1264C 529.911,1262.8 527.244,1261.8 524.5,1261C 516.728,1260.93 509.061,1260.09 501.5,1258.5C 493.853,1259.23 486.187,1259.73 478.5,1260C 474.65,1263.03 470.316,1264.03 465.5,1263C 464.14,1261.06 464.473,1259.4 466.5,1258C 469.89,1256.88 473.057,1255.38 476,1253.5C 475.586,1248.32 474.753,1243.16 473.5,1238C 474.274,1229.06 478.94,1223.23 487.5,1220.5C 480.329,1215.17 472.995,1210 465.5,1205C 461.05,1202.74 456.383,1201.07 451.5,1200C 445.547,1194.39 438.547,1192.39 430.5,1194C 425.845,1195.99 421.511,1198.49 417.5,1201.5C 415.278,1201.18 413.444,1201.84 412,1203.5C 409.486,1207.53 407.819,1211.86 407,1216.5C 406.481,1217.52 405.647,1218.18 404.5,1218.5C 401.5,1217.17 398.5,1215.83 395.5,1214.5C 393.429,1215.62 391.262,1216.62 389,1217.5C 387.48,1216.3 386.313,1214.8 385.5,1213C 375.135,1212.46 364.802,1212.46 354.5,1213C 352.49,1208.39 351.99,1203.56 353,1198.5C 362.44,1199.22 367.274,1194.89 367.5,1185.5C 362.489,1185.67 357.489,1185.5 352.5,1185C 346.891,1181.72 345.058,1176.89 347,1170.5C 350.31,1168.85 352.977,1166.52 355,1163.5C 355.333,1161.17 355.667,1158.83 356,1156.5C 359.698,1152.4 361.198,1147.57 360.5,1142C 358.338,1129.19 356.171,1116.35 354,1103.5C 352.893,1097 350.726,1091 347.5,1085.5C 345.153,1084.11 342.819,1084.27 340.5,1086C 333.65,1088.09 328.317,1086.26 324.5,1080.5C 320.65,1079.02 316.65,1078.18 312.5,1078C 308.743,1075.92 305.243,1073.42 302,1070.5C 300.951,1071.52 299.784,1071.68 298.5,1071C 297.547,1069.04 296.213,1067.38 294.5,1066C 291.44,1065.15 288.44,1064.15 285.5,1063C 285.031,1059.92 284.865,1056.75 285,1053.5C 283.71,1051.21 282.043,1049.21 280,1047.5C 279.433,1042.37 279.933,1037.37 281.5,1032.5C 277.574,1032.95 274.408,1031.62 272,1028.5C 270.137,1024.35 268.97,1020.02 268.5,1015.5C 266.833,1015.5 265.167,1015.5 263.5,1015.5C 263.351,1014.45 263.517,1013.45 264,1012.5C 265.667,1011.5 267.333,1010.5 269,1009.5C 269.576,1007.62 269.409,1005.79 268.5,1004C 271.204,996.539 275.371,990.039 281,984.5C 281.13,980.889 281.297,977.389 281.5,974C 291.066,973.759 298.066,969.426 302.5,961C 308.585,960.139 314.585,960.473 320.5,962C 325.668,964.759 330.335,968.259 334.5,972.5C 335.946,971.829 336.612,970.662 336.5,969C 334.481,959.177 334.314,949.343 336,939.5C 337.512,933.995 340.346,933.162 344.5,937C 348.764,937.371 352.931,938.204 357,939.5C 359.009,939.242 360.843,938.575 362.5,937.5C 365.35,937.636 368.183,937.969 371,938.5C 375.028,936.877 379.195,936.377 383.5,937C 388.123,942.292 393.79,945.959 400.5,948C 404.259,952.272 408.926,955.272 414.5,957C 418.546,961.357 423.546,964.023 429.5,965C 435.884,965.206 442.217,965.706 448.5,966.5C 448.653,959.22 448.819,951.886 449,944.5C 449.667,943.833 450.333,943.167 451,942.5C 451.333,938.5 451.667,934.5 452,930.5C 452.414,930.043 452.914,929.709 453.5,929.5C 454.24,926.164 454.906,922.83 455.5,919.5C 458.774,918.129 461.774,916.296 464.5,914C 470.11,905.577 477.61,903.41 487,907.5C 490.369,906.187 493.869,905.354 497.5,905C 501.763,899.368 507.43,896.702 514.5,897C 520.038,895.73 523.705,892.397 525.5,887C 550.36,889.14 561.36,877.806 558.5,853C 556.19,852.503 553.857,852.337 551.5,852.5C 552.821,843.369 555.821,834.869 560.5,827C 572.506,826.333 584.506,826 596.5,826C 597,826.5 597.5,827 598,827.5C 599.011,826.663 600.178,826.33 601.5,826.5C 601.245,823.984 600.411,821.65 599,819.5C 598.333,815.167 598.333,810.833 599,806.5C 602.03,804.14 605.364,802.14 609,800.5C 609.736,795.237 611.569,790.404 614.5,786C 610.706,779.343 608.206,772.176 607,764.5C 605,761.167 603,757.833 601,754.5C 600.132,750.328 601.632,747.162 605.5,745C 603.382,743.951 601.716,742.451 600.5,740.5C 600.595,736.39 601.595,732.557 603.5,729C 603.273,720.939 601.94,713.106 599.5,705.5C 599.719,704.062 600.219,702.729 601,701.5C 604.737,701.207 608.57,701.041 612.5,701C 615.167,699.667 617.833,698.333 620.5,697C 641.302,700.865 649.635,692.532 645.5,672C 644.242,662.983 648.075,658.149 657,657.5C 659.738,657.576 662.072,658.576 664,660.5C 666.69,658.312 669.523,656.312 672.5,654.5C 671.059,643.294 668.726,632.294 665.5,621.5C 
669.146,622.283 672.812,622.45 676.5,622C 676.895,618.259 678.228,614.926 680.5,612C 679.77,608.206 679.27,604.373 679,600.5C 677.107,597.382 675.774,594.049 675,590.5C 668.6,587.761 662.433,584.595 656.5,581C 654.5,580.667 652.5,580.333 650.5,580C 649.856,577.26 648.689,574.76 647,572.5C 644.538,571.35 642.204,570.017 640,568.5C 639.316,567.216 639.483,566.049 640.5,565C 638.965,564.504 637.465,564.67 636,565.5C 634.715,565.05 633.548,564.383 632.5,563.5C 630.05,559.219 627.05,555.385 623.5,552C 621.671,551.727 620.171,550.893 619,549.5C 618.654,547.152 617.487,545.319 615.5,544C 612.61,541.324 609.444,539.157 606,537.5C 605.138,535.913 604.471,534.246 604,532.5C 601.273,531.241 599.439,529.241 598.5,526.5C 599.946,525.06 601.779,524.393 604,524.5C 607.137,525.501 610.303,526.001 613.5,526C 614.717,524.352 615.55,522.519 616,520.5C 618.854,518.402 621.521,516.069 624,513.5C 624.663,503.913 628.497,502.246 635.5,508.5C 
637.388,502.445 641.388,498.612 647.5,497C 653.838,489.766 661.005,483.599 669,478.5C 670.343,474.49 672.509,470.99 675.5,468C 669.687,462.274 668.354,455.774 671.5,448.5 Z"/></g>
<g><path style="opacity:1" fill="#fe9f60" d="M 665.5,621.5 C 668.726,632.294 671.059,643.294 672.5,654.5C 669.523,656.312 666.69,658.312 664,660.5C 662.072,658.576 659.738,657.576 657,657.5C 648.075,658.149 644.242,662.983 645.5,672C 649.635,692.532 641.302,700.865 620.5,697C 617.833,698.333 615.167,699.667 612.5,701C 608.57,701.041 604.737,701.207 601,701.5C 600.219,702.729 599.719,704.062 599.5,705.5C 601.94,713.106 603.273,720.939 603.5,729C 601.595,732.557 600.595,736.39 600.5,740.5C 598.916,742.529 597.583,744.862 596.5,747.5C 589.433,750.44 582.766,753.94 576.5,758C 563.736,760.696 551.403,759.363 539.5,754C 534.136,753.829 528.802,753.329 523.5,752.5C 520.252,746.336 516.752,740.336 513,734.5C 511.745,722.796 510.245,711.129 508.5,699.5C 509.508,697.661 511.008,696.328 513,695.5C 515.623,687.773 520.123,681.273 526.5,676C 533.376,672.13 539.376,667.13 544.5,661C 553.341,660.808 562.008,659.974 570.5,658.5C 570.33,657.178 570.663,656.011 571.5,655C 577.149,653.574 582.815,652.241 588.5,651C 590.833,648.667 593.167,646.333 595.5,644C 599.108,642.711 602.108,640.711 604.5,638C 603.244,636.521 602.244,634.855 601.5,633C 601.933,631.072 602.6,629.239 603.5,627.5C 599.177,623.008 595.01,618.341 591,613.5C 590.786,606.735 588.119,601.069 583,596.5C 581.699,594.635 581.365,592.635 582,590.5C 587.708,590.314 593.542,589.814 599.5,589C 601.519,587.134 603.852,585.967 606.5,585.5C 617.481,588.105 628.481,588.105 639.5,585.5C 639.187,588.247 639.52,590.914 640.5,593.5C 642.884,595.051 645.384,596.385 648,597.5C 650.278,596.38 651.778,597.213 652.5,600C 655.938,599.865 658.772,601.032 661,603.5C 662.822,609.44 664.322,615.44 665.5,621.5 Z"/></g>
<g><path style="opacity:1" fill="#fec09b" d="M 412.5,686.5 C 418.169,695.336 425.336,702.669 434,708.5C 437.28,706.854 440.613,705.52 444,704.5C 447.197,705.244 450.364,705.744 453.5,706C 454.257,704.488 455.257,703.154 456.5,702C 458.901,701.205 461.068,700.038 463,698.5C 464.139,695.417 465.472,692.417 467,689.5C 468.396,687.473 470.062,687.14 472,688.5C 473.078,693.987 475.244,698.987 478.5,703.5C 485.467,704.741 492.467,705.241 499.5,705C 500.167,703.667 500.833,702.333 501.5,701C 503.92,700.71 506.254,700.21 508.5,699.5C 510.245,711.129 511.745,722.796 513,734.5C 516.752,740.336 520.252,746.336 523.5,752.5C 528.802,753.329 534.136,753.829 539.5,754C 551.403,759.363 563.736,760.696 576.5,758C 582.766,753.94 589.433,750.44 596.5,747.5C 597.583,744.862 598.916,742.529 600.5,740.5C 601.716,742.451 603.382,743.951 605.5,745C 601.632,747.162 600.132,750.328 601,754.5C 603,757.833 605,761.167 607,764.5C 608.206,772.176 610.706,779.343 614.5,786C 611.569,790.404 609.736,795.237 609,800.5C 605.364,802.14 602.03,804.14 599,806.5C 598.333,810.833 598.333,815.167 599,819.5C 600.411,821.65 601.245,823.984 601.5,826.5C 600.178,826.33 599.011,826.663 598,827.5C 597.5,827 597,826.5 596.5,826C 584.506,826 572.506,826.333 560.5,827C 555.821,834.869 552.821,843.369 551.5,852.5C 553.857,852.337 556.19,852.503 558.5,853C 561.36,877.806 550.36,889.14 525.5,887C 523.705,892.397 520.038,895.73 514.5,897C 507.43,896.702 501.763,899.368 497.5,905C 493.869,905.354 490.369,906.187 487,907.5C 477.61,903.41 470.11,905.577 464.5,914C 461.774,916.296 458.774,918.129 455.5,919.5C 454.906,922.83 454.24,926.164 453.5,929.5C 452.914,929.709 452.414,930.043 452,930.5C 451.667,934.5 451.333,938.5 451,942.5C 450.333,943.167 449.667,943.833 449,944.5C 448.819,951.886 448.653,959.22 448.5,966.5C 442.217,965.706 435.884,965.206 429.5,965C 423.546,964.023 418.546,961.357 414.5,957C 408.926,955.272 404.259,952.272 400.5,948C 393.79,945.959 388.123,942.292 383.5,937C 379.195,936.377 375.028,936.877 371,938.5C 368.183,937.969 365.35,937.636 362.5,937.5C 367.505,929.649 372.338,921.649 377,913.5C 377.063,903.139 375.563,892.972 372.5,883C 373.716,880.07 375.049,877.237 376.5,874.5C 375.9,872.064 374.4,870.398 372,869.5C 370.272,864.472 367.772,859.972 364.5,856C 364.933,854.072 365.6,852.239 366.5,850.5C 364.806,847.336 364.306,844.002 365,840.5C 367.63,836.868 370.63,833.535 374,830.5C 374.752,827.106 374.585,823.773 373.5,820.5C 369.203,818.04 366.703,814.374 366,809.5C 361.927,806.307 361.427,802.64 364.5,798.5C 366.026,796.55 367.026,794.217 367.5,791.5C 368.5,790.833 369.5,790.167 370.5,789.5C 371.01,783.356 372.177,777.356 374,771.5C 377.853,767.98 381.353,764.147 384.5,760C 383.523,758.503 382.523,757.003 381.5,755.5C 381.939,753.896 382.606,752.396 383.5,751C 376.533,744.721 377.033,738.888 385,733.5C 385.496,731.965 385.33,730.465 384.5,729C 386.856,724.932 389.023,720.766 391,716.5C 392.998,707.841 394.998,699.174 397,690.5C 397.785,688.714 398.951,687.214 400.5,686C 404.587,685.238 408.587,685.404 412.5,686.5 Z"/></g>
<g><path style="opacity:1" fill="#edc8fe" d="M 344.5,777.5 C 348.95,780.327 353.45,783.327 358,786.5C 358.988,789.424 359.654,792.424 360,795.5C 361.129,797.141 362.629,798.141 364.5,798.5C 361.427,802.64 361.927,806.307 366,809.5C 366.703,814.374 369.203,818.04 373.5,820.5C 374.585,823.773 374.752,827.106 374,830.5C 370.63,833.535 367.63,836.868 365,840.5C 364.306,844.002 364.806,847.336 366.5,850.5C 365.6,852.239 364.933,854.072 364.5,856C 367.772,859.972 370.272,864.472 372,869.5C 374.4,870.398 375.9,872.064 376.5,874.5C 375.049,877.237 373.716,880.07 372.5,883C 375.563,892.972 377.063,903.139 377,913.5C 372.338,921.649 367.505,929.649 362.5,937.5C 360.843,938.575 359.009,939.242 357,939.5C 352.931,938.204 348.764,937.371 344.5,937C 340.346,933.162 337.512,933.995 336,939.5C 334.314,949.343 334.481,959.177 336.5,969C 336.612,970.662 335.946,971.829 334.5,972.5C 330.335,968.259 325.668,964.759 320.5,962C 314.585,960.473 308.585,960.139 302.5,961C 298.066,969.426 291.066,973.759 281.5,974C 281.297,977.389 281.13,980.889 281,984.5C 275.371,990.039 271.204,996.539 268.5,1004C 269.409,1005.79 269.576,1007.62 269,1009.5C 267.333,1010.5 265.667,1011.5 264,1012.5C 263.517,1013.45 263.351,1014.45 263.5,1015.5C 265.167,1015.5 266.833,1015.5 268.5,1015.5C 268.97,1020.02 270.137,1024.35 272,1028.5C 274.408,1031.62 277.574,1032.95 281.5,1032.5C 279.933,1037.37 279.433,1042.37 280,1047.5C 282.043,1049.21 283.71,1051.21 285,1053.5C 284.865,1056.75 285.031,1059.92 285.5,1063C 288.44,1064.15 291.44,1065.15 294.5,1066C 296.213,1067.38 297.547,1069.04 298.5,1071C 299.784,1071.68 300.951,1071.52 302,1070.5C 305.243,1073.42 308.743,1075.92 312.5,1078C 316.65,1078.18 320.65,1079.02 324.5,1080.5C 328.317,1086.26 333.65,1088.09 340.5,1086C 342.819,1084.27 345.153,1084.11 347.5,1085.5C 346.399,1086.85 345.399,1088.35 344.5,1090C 340.476,1090.5 336.476,1090.33 332.5,1089.5C 335.119,1096.71 339.285,1103.04 345,1108.5C 345.93,1111.85 345.097,1114.68 342.5,1117C 338.217,1119.62 334.217,1122.62 330.5,1126C 326.916,1126.85 323.583,1126.35 320.5,1124.5C 315.965,1124.93 311.632,1125.93 307.5,1127.5C 300.842,1124.69 293.842,1123.53 286.5,1124C 284.63,1125.37 282.63,1126.53 280.5,1127.5C 279.656,1131.2 278.323,1134.7 276.5,1138C 274.19,1138.5 271.857,1138.66 269.5,1138.5C 269.663,1140.86 269.497,1143.19 269,1145.5C 263.084,1147.37 257.25,1149.7 251.5,1152.5C 251.163,1156.31 249.829,1159.64 247.5,1162.5C 243.656,1164.39 239.989,1166.56 236.5,1169C 233.854,1169.5 231.187,1169.66 228.5,1169.5C 227.621,1167.77 226.954,1165.94 226.5,1164C 228.207,1161.44 229.207,1158.61 229.5,1155.5C 229.276,1152.56 228.61,1149.72 227.5,1147C 228.252,1144.85 228.419,1142.68 228,1140.5C 224.121,1138.81 220.288,1136.98 216.5,1135C 211.877,1128.71 206.877,1122.71 201.5,1117C 191.676,1112.26 182.01,1107.26 172.5,1102C 167.552,1089.77 161.552,1078.1 154.5,1067C 151.458,1064.08 148.125,1063.74 144.5,1066C 143.5,1068.33 141.833,1070 139.5,1071C 133.306,1071.18 127.306,1072.01 121.5,1073.5C 121.337,1075.86 121.503,1078.19 122,1080.5C 125.936,1082.26 128.103,1085.26 128.5,1089.5C 126.833,1089.5 125.167,1089.5 123.5,1089.5C 122.566,1090.57 122.232,1091.9 122.5,1093.5C 120.418,1093.53 118.584,1092.86 117,1091.5C 113.702,1087.2 110.035,1083.2 106,1079.5C 104.92,1077 103.586,1074.67 102,1072.5C 101.333,1069.5 101.333,1066.5 102,1063.5C 104.827,1059.67 105.327,1055.5 103.5,1051C 103.833,1050.17 104.167,1049.33 104.5,1048.5C 110.388,1045.9 110.888,1042.57 106,1038.5C 105.333,1037.17 105.333,1035.83 106,1034.5C 113.877,1030.15 122.044,1026.31 130.5,1023C 135.451,1017.59 140.284,1012.09 145,1006.5C 147.879,1000.29 151.546,994.628 156,989.5C 157.669,984.155 159.335,978.822 161,973.5C 164.333,968.167 167.667,962.833 171,957.5C 171.401,950.697 174.401,945.363 180,941.5C 181.957,933.583 185.957,926.916 192,921.5C 193.941,917.952 195.607,914.286 197,910.5C 199.895,908.392 202.561,906.059 205,903.5C 207.667,898.167 210.333,892.833 213,887.5C 216.636,884.587 218.303,880.92 218,876.5C 214.229,876.07 212.895,874.07 214,870.5C 227.5,858.333 241,846.167 254.5,834C 266.132,830.018 277.132,824.684 287.5,818C 291.281,816.173 295.281,815.173 299.5,815C 303.167,812 306.833,809 310.5,806C 313.044,804.908 315.711,804.241 318.5,804C 325.278,797.12 332.611,790.953 340.5,785.5C 342.412,783.009 343.746,780.342 344.5,777.5 Z"/></g>
<g><path style="opacity:1" fill="#b9dfa3" d="M 228.5,1169.5 C 225.546,1170.43 222.546,1171.26 219.5,1172C 216.615,1174.39 213.615,1176.56 210.5,1178.5C 208.734,1177.91 207.067,1177.08 205.5,1176C 194.001,1172.85 184.667,1175.85 177.5,1185C 175.5,1185.33 173.5,1185.67 171.5,1186C 168.282,1188.78 164.615,1190.78 160.5,1192C 158.937,1193.74 157.27,1195.24 155.5,1196.5C 144.398,1194.64 133.898,1190.98 124,1185.5C 125.683,1175.96 123.516,1167.12 117.5,1159C 118.289,1157.37 119.289,1155.87 120.5,1154.5C 119.376,1153.09 118.376,1151.59 117.5,1150C 115.744,1149.8 114.078,1149.3 112.5,1148.5C 109.73,1145.97 109.896,1143.64 113,1141.5C 113.167,1138.33 113.333,1135.17 113.5,1132C 113.753,1126.16 112.92,1120.66 111,1115.5C 113.985,1114.18 116.985,1112.84 120,1111.5C 122.156,1112.99 124.323,1114.49 126.5,1116C 128.764,1116.24 130.931,1116.74 133,1117.5C 133.333,1117.17 133.667,1116.83 134,1116.5C 134.667,1112.5 134.667,1108.5 134,1104.5C 131.036,1100.53 127.703,1096.87 124,1093.5C 123.51,1092.21 123.343,1090.87 123.5,1089.5C 125.167,1089.5 126.833,1089.5 128.5,1089.5C 128.103,1085.26 125.936,1082.26 122,1080.5C 121.503,1078.19 121.337,1075.86 121.5,1073.5C 127.306,1072.01 133.306,1071.18 139.5,1071C 141.833,1070 143.5,1068.33 144.5,1066C 148.125,1063.74 151.458,1064.08 154.5,1067C 161.552,1078.1 167.552,1089.77 172.5,1102C 182.01,1107.26 191.676,1112.26 201.5,1117C 206.877,1122.71 211.877,1128.71 216.5,1135C 220.288,1136.98 224.121,1138.81 228,1140.5C 228.419,1142.68 228.252,1144.85 227.5,1147C 228.61,1149.72 229.276,1152.56 229.5,1155.5C 229.207,1158.61 228.207,1161.44 226.5,1164C 226.954,1165.94 227.621,1167.77 228.5,1169.5 Z"/></g>
<g><path style="opacity:1" fill="#fec09b" d="M 347.5,1085.5 C 350.726,1091 352.893,1097 354,1103.5C 356.171,1116.35 358.338,1129.19 360.5,1142C 361.198,1147.57 359.698,1152.4 356,1156.5C 355.667,1158.83 355.333,1161.17 355,1163.5C 352.977,1166.52 350.31,1168.85 347,1170.5C 345.058,1176.89 346.891,1181.72 352.5,1185C 357.489,1185.5 362.489,1185.67 367.5,1185.5C 367.274,1194.89 362.44,1199.22 353,1198.5C 351.99,1203.56 352.49,1208.39 354.5,1213C 364.802,1212.46 375.135,1212.46 385.5,1213C 386.313,1214.8 387.48,1216.3 389,1217.5C 391.262,1216.62 393.429,1215.62 395.5,1214.5C 398.5,1215.83 401.5,1217.17 404.5,1218.5C 405.647,1218.18 406.481,1217.52 407,1216.5C 407.819,1211.86 409.486,1207.53 412,1203.5C 413.444,1201.84 415.278,1201.18 417.5,1201.5C 415.724,1206.73 414.224,1212.06 413,1217.5C 408.431,1223.07 404.264,1228.9 400.5,1235C 402.293,1239.08 405.126,1242.24 409,1244.5C 408.597,1249.65 406.263,1253.98 402,1257.5C 400.181,1263.12 398.681,1268.78 397.5,1274.5C 396.93,1280.54 398.763,1285.54 403,1289.5C 402.792,1293.79 404.125,1297.46 407,1300.5C 408.674,1306.32 406.507,1308.99 400.5,1308.5C 394.405,1307.1 388.238,1306.1 382,1305.5C 378.902,1305.77 375.902,1306.44 373,1307.5C 365.005,1303.3 359.339,1305.3 356,1313.5C 352.535,1315.96 349.369,1318.8 346.5,1322C 341.499,1321.36 336.499,1321.53 331.5,1322.5C 328.044,1321.4 324.544,1320.4 321,1319.5C 314.942,1322.62 308.442,1324.29 301.5,1324.5C 298.663,1329.36 296.663,1334.52 295.5,1340C 298.732,1347.31 296.899,1353.14 290,1357.5C 288.257,1360.96 287.257,1364.62 287,1368.5C 281.917,1371.81 277.917,1370.81 275,1365.5C 274.333,1366.5 274.333,1367.5 275,1368.5C 277.777,1371.72 279.777,1375.38 281,1379.5C 283.297,1386.69 284.964,1394.02 286,1401.5C 295.269,1405.76 303.102,1411.93 309.5,1420C 310.793,1420.49 312.127,1420.66 313.5,1420.5C 315.467,1420.26 317.301,1420.59 319,1421.5C 320,1423.17 321,1424.83 322,1426.5C 322.989,1431.68 320.822,1434.35 315.5,1434.5C 311.713,1433 307.713,1432.34 303.5,1432.5C 304.336,1424.55 300.669,1421.05 292.5,1422C 282.646,1413.88 271.313,1410.05 258.5,1410.5C 257.756,1407.56 257.256,1404.56 257,1401.5C 255.89,1399.96 254.39,1399.3 252.5,1399.5C 252.5,1401.17 252.5,1402.83 252.5,1404.5C 243.203,1406.45 235.703,1403.45 230,1395.5C 229.501,1392.48 229.668,1389.48 230.5,1386.5C 229.809,1383.65 228.475,1381.15 226.5,1379C 228.255,1374.39 226.755,1371.23 222,1369.5C 220.211,1370.41 218.377,1370.58 216.5,1370C 212.5,1365.67 208.5,1361.33 204.5,1357C 202.527,1356.5 200.527,1356.34 198.5,1356.5C 198.351,1355.45 198.517,1354.45 199,1353.5C 203.869,1349.26 205.702,1343.92 204.5,1337.5C 199.246,1336.77 197.079,1339.1 198,1344.5C 193.305,1348.03 189.138,1352.03 185.5,1356.5C 183.278,1356.44 182.278,1355.27 182.5,1353C 183.881,1349.94 185.714,1347.1 188,1344.5C 190.021,1335.8 186.854,1331.47 178.5,1331.5C 176.949,1328.64 175.949,1325.64 175.5,1322.5C 176.962,1320.03 178.128,1317.36 179,1314.5C 180.932,1312.96 183.099,1311.79 185.5,1311C 186.804,1310.2 187.471,1309.03 187.5,1307.5C 186.382,1305.43 185.382,1303.26 184.5,1301C 185.217,1298.34 186.217,1295.84 187.5,1293.5C 186.223,1290.89 184.557,1288.56 182.5,1286.5C 186.364,1276.88 186.364,1267.22 182.5,1257.5C 182.608,1256.56 182.941,1255.72 183.5,1255C 186.87,1255.16 188.87,1253.66 189.5,1250.5C 185.399,1241.8 180.399,1233.63 174.5,1226C 171.167,1225.67 167.833,1225.33 164.5,1225C 160.317,1222.12 158.15,1218.29 158,1213.5C 160.996,1212.03 161.829,1209.86 160.5,1207C 157.905,1206.77 155.405,1206.27 153,1205.5C 152.679,1202.21 153.513,1199.21 155.5,1196.5C 157.27,1195.24 158.937,1193.74 160.5,1192C 164.615,1190.78 168.282,1188.78 171.5,1186C 173.5,1185.67 175.5,1185.33 177.5,1185C 184.667,1175.85 194.001,1172.85 205.5,1176C 207.067,1177.08 208.734,1177.91 210.5,1178.5C 213.615,1176.56 216.615,1174.39 219.5,1172C 222.546,1171.26 225.546,1170.43 228.5,1169.5C 231.187,1169.66 233.854,1169.5 236.5,1169C 239.989,1166.56 243.656,1164.39 247.5,1162.5C 249.829,1159.64 251.163,1156.31 251.5,1152.5C 257.25,1149.7 263.084,1147.37 269,1145.5C 269.497,1143.19 269.663,1140.86 269.5,1138.5C 271.857,1138.66 274.19,1138.5 276.5,1138C 278.323,1134.7 279.656,1131.2 280.5,1127.5C 282.63,1126.53 284.63,1125.37 286.5,1124C 293.842,1123.53 300.842,1124.69 307.5,1127.5C 311.632,1125.93 315.965,1124.93 320.5,1124.5C 323.583,1126.35 326.916,1126.85 330.5,1126C 334.217,1122.62 338.217,1119.62 342.5,1117C 345.097,1114.68 345.93,1111.85 345,1108.5C 339.285,1103.04 335.119,1096.71 332.5,1089.5C 336.476,1090.33 340.476,1090.5 344.5,1090C 345.399,1088.35 346.399,1086.85 347.5,1085.5 Z"/></g>
<g><path style="opacity:1" fill="#b3cd73" d="M 554.5,1284.5 C 551.675,1284.08 549.509,1285.08 548,1287.5C 544.965,1291.7 542.132,1296.04 539.5,1300.5C 540.048,1302.56 541.214,1304.22 543,1305.5C 541.745,1314.54 545.578,1318.71 554.5,1318C 563.363,1320.97 563.696,1324.81 555.5,1329.5C 554.369,1331.07 554.202,1332.74 555,1334.5C 559.711,1338.88 564.711,1342.88 570,1346.5C 570.315,1348.59 570.815,1350.59 571.5,1352.5C 566.889,1356.12 561.889,1356.45 556.5,1353.5C 552.538,1354.71 551.871,1356.71 554.5,1359.5C 553.756,1362.44 553.256,1365.44 553,1368.5C 551.795,1369.07 550.628,1369.74 549.5,1370.5C 550.767,1372.37 550.767,1374.2 549.5,1376C 545.558,1376.71 541.891,1378.05 538.5,1380C 531.475,1379.51 525.475,1381.67 520.5,1386.5C 519.738,1385.37 519.071,1384.21 518.5,1383C 517.551,1382.38 516.718,1382.55 516,1383.5C 516.073,1387.36 514.24,1389.69 510.5,1390.5C 511.428,1391.77 511.595,1393.1 511,1394.5C 509.414,1395.38 507.914,1396.38 506.5,1397.5C 513.511,1398.27 520.511,1399.1 527.5,1400C 527.167,1400.33 526.833,1400.67 526.5,1401C 516.833,1401.67 507.167,1401.67 497.5,1401C 492.854,1400.82 488.354,1399.99 484,1398.5C 482.065,1399.34 480.231,1399.34 478.5,1398.5C 481.167,1397.83 483.833,1397.17 486.5,1396.5C 486.291,1395.91 485.957,1395.41 485.5,1395C 472.595,1390.7 459.262,1389.37 445.5,1391C 442.151,1393.35 439.151,1396.02 436.5,1399C 421.441,1399.1 406.441,1398.43 391.5,1397C 390.069,1397.47 388.903,1398.3 388,1399.5C 387.667,1401.83 387.333,1404.17 387,1406.5C 383.078,1409.21 379.244,1412.04 375.5,1415C 370.42,1415.79 365.42,1416.13 360.5,1416C 359.299,1416.9 358.465,1418.07 358,1419.5C 357.833,1423.66 356.666,1427.49 354.5,1431C 353.167,1431.67 351.833,1431.67 350.5,1431C 347.936,1429.94 346.269,1428.1 345.5,1425.5C 347.235,1420.14 350.901,1418.14 356.5,1419.5C 356.5,1418.17 356.5,1416.83 356.5,1415.5C 352.818,1415.67 349.152,1415.5 345.5,1415C 342.938,1412.59 339.938,1410.92 336.5,1410C 331.009,1407.78 325.342,1406.28 319.5,1405.5C 319.421,1403.33 318.754,1401.33 317.5,1399.5C 318.662,1395.18 320.495,1391.18 323,1387.5C 324.256,1382.19 324.923,1376.85 325,1371.5C 323.127,1369.29 320.96,1367.46 318.5,1366C 312.877,1363.27 310.043,1365.1 310,1371.5C 304.783,1374.37 302.783,1378.71 304,1384.5C 307.787,1388.58 310.954,1393.08 313.5,1398C 311.817,1403.02 310.15,1408.02 308.5,1413C 308.667,1414.5 308.833,1416 309,1417.5C 310.652,1418.4 312.152,1419.4 313.5,1420.5C 312.127,1420.66 310.793,1420.49 309.5,1420C 303.102,1411.93 295.269,1405.76 286,1401.5C 284.964,1394.02 283.297,1386.69 281,1379.5C 279.777,1375.38 277.777,1371.72 275,1368.5C 274.333,1367.5 274.333,1366.5 275,1365.5C 277.917,1370.81 281.917,1371.81 287,1368.5C 287.257,1364.62 288.257,1360.96 290,1357.5C 296.899,1353.14 298.732,1347.31 295.5,1340C 296.663,1334.52 298.663,1329.36 301.5,1324.5C 308.442,1324.29 314.942,1322.62 321,1319.5C 324.544,1320.4 328.044,1321.4 331.5,1322.5C 336.499,1321.53 341.499,1321.36 346.5,1322C 349.369,1318.8 352.535,1315.96 356,1313.5C 359.339,1305.3 365.005,1303.3 373,1307.5C 375.902,1306.44 378.902,1305.77 382,1305.5C 388.238,1306.1 394.405,1307.1 400.5,1308.5C 406.507,1308.99 408.674,1306.32 407,1300.5C 404.125,1297.46 402.792,1293.79 403,1289.5C 398.763,1285.54 396.93,1280.54 397.5,1274.5C 398.681,1268.78 400.181,1263.12 402,1257.5C 406.263,1253.98 408.597,1249.65 409,1244.5C 405.126,1242.24 402.293,1239.08 400.5,1235C 404.264,1228.9 408.431,1223.07 413,1217.5C 414.224,1212.06 415.724,1206.73 417.5,1201.5C 421.511,1198.49 425.845,1195.99 430.5,1194C 438.547,1192.39 445.547,1194.39 451.5,1200C 456.383,1201.07 461.05,1202.74 465.5,1205C 472.995,1210 480.329,1215.17 487.5,1220.5C 478.94,1223.23 474.274,1229.06 473.5,1238C 474.753,1243.16 475.586,1248.32 476,1253.5C 473.057,1255.38 469.89,1256.88 466.5,1258C 464.473,1259.4 464.14,1261.06 465.5,1263C 470.316,1264.03 474.65,1263.03 478.5,1260C 486.187,1259.73 493.853,1259.23 501.5,1258.5C 509.061,1260.09 516.728,1260.93 524.5,1261C 527.244,1261.8 529.911,1262.8 532.5,1264C 536.766,1268.71 542.099,1270.71 548.5,1270C 551.538,1272.7 554.205,1275.7 556.5,1279C 555.139,1280.58 554.472,1282.42 554.5,1284.5 Z"/></g>
<g><path style="opacity:1" fill="#f5b1b4" d="M 645.5,1214.5 C 645.245,1217.02 644.411,1219.35 643,1221.5C 640.039,1226.29 636.539,1230.63 632.5,1234.5C 631.682,1237.11 631.182,1239.77 631,1242.5C 622.887,1245.73 617.22,1251.4 614,1259.5C 614.731,1265.07 615.398,1270.74 616,1276.5C 619.713,1279.24 623.88,1280.91 628.5,1281.5C 628.336,1284.19 628.503,1286.85 629,1289.5C 630.802,1290.79 631.969,1292.46 632.5,1294.5C 632.296,1299.52 629.962,1303.02 625.5,1305C 622.525,1310.64 618.192,1314.97 612.5,1318C 609.975,1318.9 607.808,1318.4 606,1316.5C 605.075,1311.86 603.409,1307.53 601,1303.5C 599.302,1304.53 598.468,1306.03 598.5,1308C 599.586,1313.43 601.419,1318.59 604,1323.5C 604.667,1325.5 604.667,1327.5 604,1329.5C 597.117,1336.35 589.95,1342.85 582.5,1349C 578.432,1349.11 574.765,1350.28 571.5,1352.5C 570.815,1350.59 570.315,1348.59 570,1346.5C 564.711,1342.88 559.711,1338.88 555,1334.5C 554.202,1332.74 554.369,1331.07 555.5,1329.5C 563.696,1324.81 563.363,1320.97 554.5,1318C 545.578,1318.71 541.745,1314.54 543,1305.5C 541.214,1304.22 540.048,1302.56 539.5,1300.5C 542.132,1296.04 544.965,1291.7 548,1287.5C 549.509,1285.08 551.675,1284.08 554.5,1284.5C 558.846,1284.67 563.179,1284.5 567.5,1284C 568.385,1279.88 568.552,1275.72 568,1271.5C 571.381,1269.98 574.381,1267.98 577,1265.5C 577.981,1263.04 578.815,1260.54 579.5,1258C 578.46,1255.87 576.96,1254.04 575,1252.5C 574.268,1248.89 572.935,1245.55 571,1242.5C 570.333,1237.83 570.333,1233.17 571,1228.5C 574.718,1224.65 576.718,1219.98 577,1214.5C 580.952,1210.09 584.785,1205.59 588.5,1201C 593.666,1197.05 597.999,1197.72 601.5,1203C 605.167,1203.33 608.833,1203.67 612.5,1204C 615.427,1208.13 619.427,1210.13 624.5,1210C 625.739,1212.24 627.572,1213.74 630,1214.5C 633.447,1213.64 636.78,1212.64 640,1211.5C 642.376,1211.68 644.209,1212.68 645.5,1214.5 Z"/></g>
<g><path style="opacity:1" fill="#fd9f60" d="M 753.5,1257.5 C 752.549,1258.92 752.216,1260.59 752.5,1262.5C 750.146,1262.84 747.813,1263.34 745.5,1264C 743.13,1267.11 741.13,1270.44 739.5,1274C 734.786,1274.38 731.453,1276.72 729.5,1281C 722.001,1282.83 715.001,1285.83 708.5,1290C 705.502,1290.89 702.836,1290.39 700.5,1288.5C 700.108,1286.82 699.608,1285.15 699,1283.5C 694.064,1282.05 692.231,1278.72 693.5,1273.5C 693.667,1271.17 693.833,1268.83 694,1266.5C 697.59,1258.81 699.59,1250.81 700,1242.5C 698.262,1236.94 696.929,1231.27 696,1225.5C 693.931,1223.91 691.764,1222.58 689.5,1221.5C 691.243,1218.25 693.577,1215.42 696.5,1213C 699.486,1213.13 702.486,1213.13 705.5,1213C 707.714,1209.89 710.714,1208.39 714.5,1208.5C 714.253,1211.5 715.253,1214 717.5,1216C 723.752,1216.41 729.252,1218.58 734,1222.5C 736.704,1229.19 739.371,1235.85 742,1242.5C 744.039,1244.87 746.372,1246.87 749,1248.5C 751.571,1250.98 753.071,1253.98 753.5,1257.5 Z"/></g>
<g><path style="opacity:1" fill="#b9dfa2" d="M 689.5,1221.5 C 691.764,1222.58 693.931,1223.91 696,1225.5C 696.929,1231.27 698.262,1236.94 700,1242.5C 699.59,1250.81 697.59,1258.81 694,1266.5C 693.833,1268.83 693.667,1271.17 693.5,1273.5C 692.231,1278.72 694.064,1282.05 699,1283.5C 699.608,1285.15 700.108,1286.82 700.5,1288.5C 699.832,1291.24 698.499,1293.74 696.5,1296C 692.014,1296.62 687.514,1297.12 683,1297.5C 680.093,1297.57 677.76,1296.57 676,1294.5C 673.981,1296.68 671.481,1297.68 668.5,1297.5C 664.581,1296.61 660.747,1295.61 657,1294.5C 650.753,1295.08 644.586,1296.08 638.5,1297.5C 635.95,1297.38 633.95,1296.38 632.5,1294.5C 631.969,1292.46 630.802,1290.79 629,1289.5C 628.503,1286.85 628.336,1284.19 628.5,1281.5C 623.88,1280.91 619.713,1279.24 616,1276.5C 615.398,1270.74 614.731,1265.07 614,1259.5C 617.22,1251.4 622.887,1245.73 631,1242.5C 631.182,1239.77 631.682,1237.11 632.5,1234.5C 636.539,1230.63 640.039,1226.29 643,1221.5C 644.411,1219.35 645.245,1217.02 645.5,1214.5C 649.884,1212.32 654.551,1211.32 659.5,1211.5C 659.635,1214.51 658.635,1217.01 656.5,1219C 657.139,1224.82 660.139,1226.65 665.5,1224.5C 669.644,1225.6 673.811,1226.6 678,1227.5C 679.167,1227.33 680.333,1227.17 681.5,1227C 683.674,1224.42 686.341,1222.58 689.5,1221.5 Z"/></g>
</svg>
